<?xml version="1.0" encoding="UTF-8" standalone="no"?>
<!-- Created with Inkscape (http://www.inkscape.org/) -->

<svg
   version="1.1"
   id="svg15686"
   width="1280"
   height="720"
   viewBox="0 0 1280 720"
   sodipodi:docname="criteria_summary_final.svg"
   inkscape:version="1.2 (dc2aedaf03, 2022-05-15)"
   xmlns:inkscape="http://www.inkscape.org/namespaces/inkscape"
   xmlns:sodipodi="http://sodipodi.sourceforge.net/DTD/sodipodi-0.dtd"
   xmlns="http://www.w3.org/2000/svg"
   xmlns:svg="http://www.w3.org/2000/svg">
  <defs
     id="defs15690">
    <clipPath
       clipPathUnits="userSpaceOnUse"
       id="clipPath15732">
      <path
         d="M 0,0 H 960 V 540 H 0 Z"
         id="path15730" />
    </clipPath>
    <clipPath
       clipPathUnits="userSpaceOnUse"
       id="clipPath15748">
      <path
         d="M 0,0 H 960 V 540 H 0 Z"
         id="path15746" />
    </clipPath>
    <clipPath
       clipPathUnits="userSpaceOnUse"
       id="clipPath15768">
      <path
         d="M 0,0 H 960 V 540 H 0 Z"
         id="path15766" />
    </clipPath>
    <clipPath
       clipPathUnits="userSpaceOnUse"
       id="clipPath15788">
      <path
         d="M 0,0 H 960 V 540 H 0 Z"
         id="path15786" />
    </clipPath>
    <clipPath
       clipPathUnits="userSpaceOnUse"
       id="clipPath15808">
      <path
         d="M 0,0 H 960 V 540 H 0 Z"
         id="path15806" />
    </clipPath>
    <clipPath
       clipPathUnits="userSpaceOnUse"
       id="clipPath15828">
      <path
         d="M 0,0 H 960 V 540 H 0 Z"
         id="path15826" />
    </clipPath>
    <clipPath
       clipPathUnits="userSpaceOnUse"
       id="clipPath15848">
      <path
         d="M 0,0 H 960 V 540 H 0 Z"
         id="path15846" />
    </clipPath>
    <clipPath
       clipPathUnits="userSpaceOnUse"
       id="clipPath15868">
      <path
         d="M 0,0 H 960 V 540 H 0 Z"
         id="path15866" />
    </clipPath>
    <clipPath
       clipPathUnits="userSpaceOnUse"
       id="clipPath16090">
      <path
         d="M 0,0 H 960 V 540 H 0 Z"
         id="path16088" />
    </clipPath>
  </defs>
  <sodipodi:namedview
     id="namedview15688"
     pagecolor="#ffffff"
     bordercolor="#666666"
     borderopacity="1.0"
     inkscape:showpageshadow="2"
     inkscape:pageopacity="0.0"
     inkscape:pagecheckerboard="0"
     inkscape:deskcolor="#d1d1d1"
     showgrid="false"
     inkscape:zoom="1.1305556"
     inkscape:cx="638.62408"
     inkscape:cy="360.44226"
     inkscape:window-width="1920"
     inkscape:window-height="1001"
     inkscape:window-x="-9"
     inkscape:window-y="-9"
     inkscape:window-maximized="1"
     inkscape:current-layer="g15694">
    <inkscape:page
       x="0"
       y="0"
       id="page15692"
       width="1280"
       height="720" />
  </sodipodi:namedview>
  <g
     id="g15694"
     inkscape:groupmode="layer"
     inkscape:label="Page 1"
     transform="matrix(1.3333333,0,0,-1.3333333,0,720)">
    <path
       d="M 0,0 H 960 V 540 H 0 Z"
       style="fill:#ffffff;fill-opacity:1;fill-rule:nonzero;stroke:none"
       id="path15696" />
    <g
       id="g15698"
       transform="translate(450.5805,340.9843)">
      <path
         d="M 0,0 -67.366,32.057"
         style="fill:none;stroke:#34599c;stroke-width:1;stroke-linecap:butt;stroke-linejoin:miter;stroke-miterlimit:8;stroke-dasharray:none;stroke-opacity:1"
         id="path15700" />
    </g>
    <g
       id="g15702"
       transform="translate(450.5805,327.2412)">
      <path
         d="M 0,0 -73.618,-8.3"
         style="fill:none;stroke:#34599c;stroke-width:1;stroke-linecap:butt;stroke-linejoin:miter;stroke-miterlimit:8;stroke-dasharray:none;stroke-opacity:1"
         id="path15704" />
    </g>
    <g
       id="g15706"
       transform="translate(473.2245,306.5256)">
      <path
         d="M 0,0 -2.088,-69.232"
         style="fill:none;stroke:#34599c;stroke-width:1;stroke-linecap:butt;stroke-linejoin:miter;stroke-miterlimit:8;stroke-dasharray:none;stroke-opacity:1"
         id="path15708" />
    </g>
    <g
       id="g15710"
       transform="translate(450.5805,313.5695)">
      <path
         d="M 0,0 -58.473,-40.832"
         style="fill:none;stroke:#34599c;stroke-width:1;stroke-linecap:butt;stroke-linejoin:miter;stroke-miterlimit:8;stroke-dasharray:none;stroke-opacity:1"
         id="path15712" />
    </g>
    <g
       id="g15714"
       transform="translate(497.2768,311.7924)">
      <path
         d="M 0,0 51.832,-40.14"
         style="fill:none;stroke:#34599c;stroke-width:1;stroke-linecap:butt;stroke-linejoin:miter;stroke-miterlimit:8;stroke-dasharray:none;stroke-opacity:1"
         id="path15716" />
    </g>
    <g
       id="g15718"
       transform="translate(497.2767,327.441)">
      <path
         d="M 0,0 75.621,-7.88"
         style="fill:none;stroke:#34599c;stroke-width:1;stroke-linecap:butt;stroke-linejoin:miter;stroke-miterlimit:8;stroke-dasharray:none;stroke-opacity:1"
         id="path15720" />
    </g>
    <g
       id="g15722"
       transform="translate(497.2767,341.7444)">
      <path
         d="M 0,0 60.694,30.858"
         style="fill:none;stroke:#34599c;stroke-width:1;stroke-linecap:butt;stroke-linejoin:miter;stroke-miterlimit:8;stroke-dasharray:none;stroke-opacity:1"
         id="path15724" />
    </g>
    <g
       id="g15726">
      <g
         id="g15728"
         clip-path="url(#clipPath15732)">
        <g
           id="g15734"
           transform="translate(387.72,329.88)">
          <path
             d="m 0,0 c 0,18.424 38.575,33.36 86.16,33.36 47.585,0 86.16,-14.936 86.16,-33.36 0,-18.424 -38.575,-33.36 -86.16,-33.36 C 38.575,-33.36 0,-18.424 0,0"
             style="fill:#4472c4;fill-opacity:1;fill-rule:evenodd;stroke:none"
             id="path15736" />
        </g>
        <g
           id="g15738"
           transform="translate(387.72,329.88)">
          <path
             d="m 0,0 c 0,18.424 38.575,33.36 86.16,33.36 47.585,0 86.16,-14.936 86.16,-33.36 0,-18.424 -38.575,-33.36 -86.16,-33.36 C 38.575,-33.36 0,-18.424 0,0 Z"
             style="fill:none;stroke:#ffffff;stroke-width:1;stroke-linecap:butt;stroke-linejoin:miter;stroke-miterlimit:8;stroke-dasharray:none;stroke-opacity:1"
             id="path15740" />
        </g>
      </g>
    </g>
    <g
       id="g15742">
      <g
         id="g15744"
         clip-path="url(#clipPath15748)">
        <g
           id="g15750"
           transform="translate(537.12,389.4)">
          <path
             d="m 0,0 c 0,11.731 24.123,21.24 53.88,21.24 29.757,0 53.88,-9.509 53.88,-21.24 0,-11.731 -24.123,-21.24 -53.88,-21.24 C 24.123,-21.24 0,-11.731 0,0"
             style="fill:#4472c4;fill-opacity:1;fill-rule:evenodd;stroke:none"
             id="path15752" />
        </g>
        <g
           id="g15754"
           transform="translate(537.12,389.4)">
          <path
             d="m 0,0 c 0,11.731 24.123,21.24 53.88,21.24 29.757,0 53.88,-9.509 53.88,-21.24 0,-11.731 -24.123,-21.24 -53.88,-21.24 C 24.123,-21.24 0,-11.731 0,0 Z"
             style="fill:none;stroke:#ffffff;stroke-width:1;stroke-linecap:butt;stroke-linejoin:miter;stroke-miterlimit:8;stroke-dasharray:none;stroke-opacity:1"
             id="path15756" />
        </g>
      </g>
    </g>
    <text
       xml:space="preserve"
       transform="matrix(1,0,0,-1,577.6404,386.0275)"
       style="font-variant:normal;font-weight:normal;font-stretch:normal;font-size:12px;font-family:Calibri;-inkscape-font-specification:Calibri;writing-mode:lr-tb;fill:#ffffff;fill-opacity:1;fill-rule:nonzero;stroke:none"
       id="text15760"><tspan
         x="0 5.52 9.4799995 15.24 20.76"
         y="0"
         sodipodi:role="line"
         id="tspan15758">Stage</tspan></text>
    <g
       id="g15762">
      <g
         id="g15764"
         clip-path="url(#clipPath15768)">
        <g
           id="g15770"
           transform="translate(571.08,314.16)">
          <path
             d="m 0,0 c 0,11.731 24.123,21.24 53.88,21.24 29.757,0 53.88,-9.509 53.88,-21.24 0,-11.731 -24.123,-21.24 -53.88,-21.24 C 24.123,-21.24 0,-11.731 0,0"
             style="fill:#4472c4;fill-opacity:1;fill-rule:evenodd;stroke:none"
             id="path15772" />
        </g>
        <g
           id="g15774"
           transform="translate(571.08,314.1601)">
          <path
             d="m 0,0 c 0,11.731 24.123,21.24 53.88,21.24 29.757,0 53.88,-9.509 53.88,-21.24 0,-11.731 -24.123,-21.24 -53.88,-21.24 C 24.123,-21.24 0,-11.731 0,0 Z"
             style="fill:none;stroke:#ffffff;stroke-width:1;stroke-linecap:butt;stroke-linejoin:miter;stroke-miterlimit:8;stroke-dasharray:none;stroke-opacity:1"
             id="path15776" />
        </g>
      </g>
    </g>
    <text
       xml:space="preserve"
       transform="matrix(1,0,0,-1,609.5699,310.7677)"
       style="font-variant:normal;font-weight:normal;font-stretch:normal;font-size:12px;font-family:Calibri;-inkscape-font-specification:Calibri;writing-mode:lr-tb;fill:#ffffff;fill-opacity:1;fill-rule:nonzero;stroke:none"
       id="text15780"><tspan
         x="0 3 9.3599997 15.72 22.08 26.16"
         y="0"
         sodipodi:role="line"
         id="tspan15778">Inputs</tspan></text>
    <g
       id="g15782">
      <g
         id="g15784"
         clip-path="url(#clipPath15788)">
        <g
           id="g15790"
           transform="translate(519.72,252.72)">
          <path
             d="m 0,0 c 0,11.731 24.123,21.24 53.88,21.24 29.757,0 53.88,-9.509 53.88,-21.24 0,-11.731 -24.123,-21.24 -53.88,-21.24 C 24.123,-21.24 0,-11.731 0,0"
             style="fill:#4472c4;fill-opacity:1;fill-rule:evenodd;stroke:none"
             id="path15792" />
        </g>
        <g
           id="g15794"
           transform="translate(519.72,252.72)">
          <path
             d="m 0,0 c 0,11.731 24.123,21.24 53.88,21.24 29.757,0 53.88,-9.509 53.88,-21.24 0,-11.731 -24.123,-21.24 -53.88,-21.24 C 24.123,-21.24 0,-11.731 0,0 Z"
             style="fill:none;stroke:#ffffff;stroke-width:1;stroke-linecap:butt;stroke-linejoin:miter;stroke-miterlimit:8;stroke-dasharray:none;stroke-opacity:1"
             id="path15796" />
        </g>
      </g>
    </g>
    <text
       xml:space="preserve"
       transform="matrix(1,0,0,-1,561.1675,249.3433)"
       style="font-variant:normal;font-weight:normal;font-stretch:normal;font-size:12px;font-family:Calibri;-inkscape-font-specification:Calibri;writing-mode:lr-tb;fill:#ffffff;fill-opacity:1;fill-rule:nonzero;stroke:none"
       id="text15800"><tspan
         x="0 3 7.6799998 12.36 18.719999"
         y="0"
         sodipodi:role="line"
         id="tspan15798">Issue</tspan></text>
    <g
       id="g15802">
      <g
         id="g15804"
         clip-path="url(#clipPath15808)">
        <g
           id="g15810"
           transform="translate(311.76,254.22)">
          <path
             d="m 0,0 c 0,11.764 24.123,21.3 53.88,21.3 29.757,0 53.88,-9.536 53.88,-21.3 0,-11.764 -24.123,-21.3 -53.88,-21.3 C 24.123,-21.3 0,-11.764 0,0"
             style="fill:#4472c4;fill-opacity:1;fill-rule:evenodd;stroke:none"
             id="path15812" />
        </g>
        <g
           id="g15814"
           transform="translate(311.76,254.22)">
          <path
             d="m 0,0 c 0,11.764 24.123,21.3 53.88,21.3 29.757,0 53.88,-9.536 53.88,-21.3 0,-11.764 -24.123,-21.3 -53.88,-21.3 C 24.123,-21.3 0,-11.764 0,0 Z"
             style="fill:none;stroke:#ffffff;stroke-width:1;stroke-linecap:butt;stroke-linejoin:miter;stroke-miterlimit:8;stroke-dasharray:none;stroke-opacity:1"
             id="path15816" />
        </g>
      </g>
    </g>
    <text
       xml:space="preserve"
       transform="matrix(1,0,0,-1,345.6413,250.8623)"
       style="font-variant:normal;font-weight:normal;font-stretch:normal;font-size:12px;font-family:Calibri;-inkscape-font-specification:Calibri;writing-mode:lr-tb;fill:#ffffff;fill-opacity:1;fill-rule:nonzero;stroke:none"
       id="text15820"><tspan
         x="0 7.9200001 14.28 18.360001 24.719999 31.08 35.16"
         y="0"
         sodipodi:role="line"
         id="tspan15818">Outputs</tspan></text>
    <g
       id="g15822">
      <g
         id="g15824"
         clip-path="url(#clipPath15828)">
        <g
           id="g15830"
           transform="translate(416.64,216)">
          <path
             d="m 0,0 c 0,11.731 24.123,21.24 53.88,21.24 29.757,0 53.88,-9.509 53.88,-21.24 0,-11.731 -24.123,-21.24 -53.88,-21.24 C 24.123,-21.24 0,-11.731 0,0"
             style="fill:#4472c4;fill-opacity:1;fill-rule:evenodd;stroke:none"
             id="path15832" />
        </g>
        <g
           id="g15834"
           transform="translate(416.64,216)">
          <path
             d="m 0,0 c 0,11.731 24.123,21.24 53.88,21.24 29.757,0 53.88,-9.509 53.88,-21.24 0,-11.731 -24.123,-21.24 -53.88,-21.24 C 24.123,-21.24 0,-11.731 0,0 Z"
             style="fill:none;stroke:#ffffff;stroke-width:1;stroke-linecap:butt;stroke-linejoin:miter;stroke-miterlimit:8;stroke-dasharray:none;stroke-opacity:1"
             id="path15836" />
        </g>
      </g>
    </g>
    <text
       xml:space="preserve"
       transform="matrix(1,0,0,-1,437.5751,212.6673)"
       style="font-variant:normal;font-weight:normal;font-stretch:normal;font-size:12px;font-family:Calibri;-inkscape-font-specification:Calibri;writing-mode:lr-tb;fill:#ffffff;fill-opacity:1;fill-rule:nonzero;stroke:none"
       id="text15840"><tspan
         x="0 10.32 16.200001 20.280001 26.639999 33 39.360001 45.720001 48.48 54.84 60.478802"
         y="0"
         sodipodi:role="line"
         id="tspan15838">Methodology</tspan></text>
    <g
       id="g15842">
      <g
         id="g15844"
         clip-path="url(#clipPath15848)">
        <g
           id="g15850"
           transform="translate(271.32,313.08)">
          <path
             d="m 0,0 c 0,11.731 24.123,21.24 53.88,21.24 29.757,0 53.88,-9.509 53.88,-21.24 0,-11.731 -24.123,-21.24 -53.88,-21.24 C 24.123,-21.24 0,-11.731 0,0"
             style="fill:#4472c4;fill-opacity:1;fill-rule:evenodd;stroke:none"
             id="path15852" />
        </g>
        <g
           id="g15854"
           transform="translate(271.32,313.08)">
          <path
             d="m 0,0 c 0,11.731 24.123,21.24 53.88,21.24 29.757,0 53.88,-9.509 53.88,-21.24 0,-11.731 -24.123,-21.24 -53.88,-21.24 C 24.123,-21.24 0,-11.731 0,0 Z"
             style="fill:none;stroke:#ffffff;stroke-width:1;stroke-linecap:butt;stroke-linejoin:miter;stroke-miterlimit:8;stroke-dasharray:none;stroke-opacity:1"
             id="path15856" />
        </g>
      </g>
    </g>
    <text
       xml:space="preserve"
       transform="matrix(1,0,0,-1,287.4551,309.8192)"
       style="font-variant:normal;font-weight:normal;font-stretch:normal;font-size:11.52px;font-family:Calibri;-inkscape-font-specification:Calibri;writing-mode:lr-tb;fill:#ffffff;fill-opacity:1;fill-rule:nonzero;stroke:none"
       id="text15860"><tspan
         x="0 2.8800001 12.120192 18.119808 20.760193 26.520191 35.760384 41.520386 47.52 51.356159 56.876545 60.712704 63.353088 69.472511"
         y="0"
         sodipodi:role="line"
         id="tspan15858">Implementation</tspan></text>
    <g
       id="g15862">
      <g
         id="g15864"
         clip-path="url(#clipPath15868)">
        <g
           id="g15870"
           transform="translate(294.96,389.4)">
          <path
             d="m 0,0 c 0,11.731 24.123,21.24 53.88,21.24 29.757,0 53.88,-9.509 53.88,-21.24 0,-11.731 -24.123,-21.24 -53.88,-21.24 C 24.123,-21.24 0,-11.731 0,0"
             style="fill:#4472c4;fill-opacity:1;fill-rule:evenodd;stroke:none"
             id="path15872" />
        </g>
        <g
           id="g15874"
           transform="translate(294.96,389.4)">
          <path
             d="m 0,0 c 0,11.731 24.123,21.24 53.88,21.24 29.757,0 53.88,-9.509 53.88,-21.24 0,-11.731 -24.123,-21.24 -53.88,-21.24 C 24.123,-21.24 0,-11.731 0,0 Z"
             style="fill:none;stroke:#ffffff;stroke-width:1;stroke-linecap:butt;stroke-linejoin:miter;stroke-miterlimit:8;stroke-dasharray:none;stroke-opacity:1"
             id="path15876" />
        </g>
      </g>
    </g>
    <text
       xml:space="preserve"
       transform="matrix(1,0,0,-1,325.6258,386.0369)"
       style="font-variant:normal;font-weight:normal;font-stretch:normal;font-size:12px;font-family:Calibri;-inkscape-font-specification:Calibri;writing-mode:lr-tb;fill:#ffffff;fill-opacity:1;fill-rule:nonzero;stroke:none"
       id="text15880"><tspan
         x="0 7.9200001 14.28 17.16 23.16 28.200001 32.279999 35.040001 40.318802"
         y="0"
         sodipodi:role="line"
         id="tspan15878">Objective</tspan></text>
    <text
       xml:space="preserve"
       transform="matrix(1,0,0,-1,242.4548,218.2025)"
       style="font-variant:normal;font-weight:normal;font-stretch:normal;font-size:11.04px;font-family:Arial;-inkscape-font-specification:ArialMT;writing-mode:lr-tb;fill:#000000;fill-opacity:1;fill-rule:nonzero;stroke:none"
       id="text15884"><tspan
         x="0"
         y="0"
         id="tspan15882">•</tspan></text>
    <text
       xml:space="preserve"
       transform="matrix(1,0,0,-1,256.0148,218.2025)"
       style="font-variant:normal;font-weight:normal;font-stretch:normal;font-size:11.04px;font-family:Calibri;-inkscape-font-specification:Calibri;writing-mode:lr-tb;fill:#000000;fill-opacity:1;fill-rule:nonzero;stroke:none"
       id="text15888"><tspan
         x="0 5.39856 10.91856 15.72096 19.441441 23.761393 28.081345 31.681488 36.960815 40.560959 43.08139 47.401344 51.001488 53.520817 58.08144 62.401394 64.443794 67.803261 73.443604 79.083939 86.999619"
         y="0"
         sodipodi:role="line"
         id="tspan15886">Text/statistics (31%)</tspan></text>
    <text
       xml:space="preserve"
       transform="matrix(1,0,0,-1,242.4548,205.0025)"
       style="font-variant:normal;font-weight:normal;font-stretch:normal;font-size:11.04px;font-family:Arial;-inkscape-font-specification:ArialMT;writing-mode:lr-tb;fill:#000000;fill-opacity:1;fill-rule:nonzero;stroke:none"
       id="text15892"><tspan
         x="0"
         y="0"
         id="tspan15890">•</tspan></text>
    <text
       xml:space="preserve"
       transform="matrix(1,0,0,-1,256.0148,205.0025)"
       style="font-variant:normal;font-weight:normal;font-stretch:normal;font-size:11.04px;font-family:Calibri;-inkscape-font-specification:Calibri;writing-mode:lr-tb;fill:#000000;fill-opacity:1;fill-rule:nonzero;stroke:none"
       id="text15896"><tspan
         x="0 6.2398081 8.7569284 13.07688 18.837551 24.114672 26.631792 29.031887 34.191982 38.033905 43.311024 49.070591 54.831264 59.151215 61.430977 64.79155 70.431885 76.071121 83.991219"
         y="0"
         sodipodi:role="line"
         id="tspan15894">Visual graphs (34%)</tspan></text>
    <text
       xml:space="preserve"
       transform="matrix(1,0,0,-1,242.4548,191.8025)"
       style="font-variant:normal;font-weight:normal;font-stretch:normal;font-size:11.04px;font-family:Arial;-inkscape-font-specification:ArialMT;writing-mode:lr-tb;fill:#000000;fill-opacity:1;fill-rule:nonzero;stroke:none"
       id="text15900"><tspan
         x="0"
         y="0"
         id="tspan15898">•</tspan></text>
    <text
       xml:space="preserve"
       transform="matrix(1,0,0,-1,256.0148,191.8025)"
       style="font-variant:normal;font-weight:normal;font-stretch:normal;font-size:11.04px;font-family:Calibri;-inkscape-font-specification:Calibri;writing-mode:lr-tb;fill:#000000;fill-opacity:1;fill-rule:nonzero;stroke:none"
       id="text15904"><tspan
         x="0 9.4800482 12.00048 16.802879 20.523359 26.04336 28.196159 31.55232 37.192657 42.835201 50.755295"
         y="0"
         sodipodi:role="line"
         id="tspan15902">Mixte (35%)</tspan></text>
    <text
       xml:space="preserve"
       transform="matrix(1,0,0,-1,683.714,323.1385)"
       style="font-variant:normal;font-weight:normal;font-stretch:normal;font-size:11.04px;font-family:Arial;-inkscape-font-specification:ArialMT;writing-mode:lr-tb;fill:#000000;fill-opacity:1;fill-rule:nonzero;stroke:none"
       id="text15908"><tspan
         x="0"
         y="0"
         id="tspan15906">•</tspan></text>
    <text
       xml:space="preserve"
       transform="matrix(1,0,0,-1,697.274,323.1385)"
       style="font-variant:normal;font-weight:normal;font-stretch:normal;font-size:11.04px;font-family:Calibri;-inkscape-font-specification:Calibri;writing-mode:lr-tb;fill:#000000;fill-opacity:1;fill-rule:nonzero;stroke:none"
       id="text15912"><tspan
         x="0 5.8799038 11.759808 17.520479 21.239857 23.760288 29.519855 35.279423 41.159328 46.799664 53.279041 56.635201 62.275536 70.195633"
         y="0"
         sodipodi:role="line"
         id="tspan15910">Continuous(8%)</tspan></text>
    <text
       xml:space="preserve"
       transform="matrix(1,0,0,-1,683.714,309.9385)"
       style="font-variant:normal;font-weight:normal;font-stretch:normal;font-size:11.04px;font-family:Arial;-inkscape-font-specification:ArialMT;writing-mode:lr-tb;fill:#000000;fill-opacity:1;fill-rule:nonzero;stroke:none"
       id="text15916"><tspan
         x="0"
         y="0"
         id="tspan15914">•</tspan></text>
    <text
       xml:space="preserve"
       transform="matrix(1,0,0,-1,697.274,309.9385)"
       style="font-variant:normal;font-weight:normal;font-stretch:normal;font-size:11.04px;font-family:Calibri;-inkscape-font-specification:Calibri;writing-mode:lr-tb;fill:#000000;fill-opacity:1;fill-rule:nonzero;stroke:none"
       id="text15920"><tspan
         x="0 5.8799038 11.157024 14.877504 20.397505 25.5576 31.437504 35.279423 37.796543 42.476398 47.753521 52.318562 55.674721 61.315056 69.235153"
         y="0"
         sodipodi:role="line"
         id="tspan15918">Categorical(2%)</tspan></text>
    <text
       xml:space="preserve"
       transform="matrix(1,0,0,-1,683.714,296.7385)"
       style="font-variant:normal;font-weight:normal;font-stretch:normal;font-size:11.04px;font-family:Arial;-inkscape-font-specification:ArialMT;writing-mode:lr-tb;fill:#000000;fill-opacity:1;fill-rule:nonzero;stroke:none"
       id="text15924"><tspan
         x="0"
         y="0"
         id="tspan15922">•</tspan></text>
    <text
       xml:space="preserve"
       transform="matrix(1,0,0,-1,697.274,296.7385)"
       style="font-variant:normal;font-weight:normal;font-stretch:normal;font-size:11.04px;font-family:Calibri;-inkscape-font-specification:Calibri;writing-mode:lr-tb;fill:#000000;fill-opacity:1;fill-rule:nonzero;stroke:none"
       id="text15928"><tspan
         x="0 9.4800482 12.00048 16.802879 20.523359 26.04336 28.207199 31.567776 37.208111 42.84845 50.76413"
         y="0"
         sodipodi:role="line"
         id="tspan15926">Mixte (90%)</tspan></text>
    <text
       xml:space="preserve"
       transform="matrix(1,0,0,-1,174.7062,400.4779)"
       style="font-variant:normal;font-weight:normal;font-stretch:normal;font-size:11.04px;font-family:Arial;-inkscape-font-specification:ArialMT;writing-mode:lr-tb;fill:#000000;fill-opacity:1;fill-rule:nonzero;stroke:none"
       id="text15932"><tspan
         x="0"
         y="0"
         id="tspan15930">•</tspan></text>
    <text
       xml:space="preserve"
       transform="matrix(1,0,0,-1,188.2662,400.4779)"
       style="font-variant:normal;font-weight:normal;font-stretch:normal;font-size:11.04px;font-family:Calibri;-inkscape-font-specification:Calibri;writing-mode:lr-tb;fill:#000000;fill-opacity:1;fill-rule:nonzero;stroke:none"
       id="text15936"><tspan
         x="0 6.9552002 9.4723196 15.352224 21.112896 26.390017 28.907137 31.186895 37.067905 42.107662 47.627663 51.469585 56.510448 59.027569 64.547569 72.467667 74.752945 78.112419 83.752754 89.393089 97.313187 100.67265"
         y="0"
         sodipodi:role="line"
         id="tspan15934">Global overview (22%) </tspan></text>
    <text
       xml:space="preserve"
       transform="matrix(1,0,0,-1,174.7062,387.2779)"
       style="font-variant:normal;font-weight:normal;font-stretch:normal;font-size:11.04px;font-family:Arial;-inkscape-font-specification:ArialMT;writing-mode:lr-tb;fill:#000000;fill-opacity:1;fill-rule:nonzero;stroke:none"
       id="text15940"><tspan
         x="0"
         y="0"
         id="tspan15938">•</tspan></text>
    <text
       xml:space="preserve"
       transform="matrix(1,0,0,-1,188.2662,387.2779)"
       style="font-variant:normal;font-weight:normal;font-stretch:normal;font-size:11.04px;font-family:Calibri;-inkscape-font-specification:Calibri;writing-mode:lr-tb;fill:#000000;fill-opacity:1;fill-rule:nonzero;stroke:none"
       id="text15944"><tspan
         x="0 4.6798558 10.55976 15.24072 20.517839 23.03496 25.198799 30.7188 35.517887 41.278561 43.795681 49.0728 54.833473 60.110592 63.831074 66.34819 72.228096 77.987663 80.151505 83.512077 89.152412 94.791649 102.71175 106.07232"
         y="0"
         sodipodi:role="line"
         id="tspan15942">Local explanation (18%) </tspan></text>
    <text
       xml:space="preserve"
       transform="matrix(1,0,0,-1,174.7062,374.0779)"
       style="font-variant:normal;font-weight:normal;font-stretch:normal;font-size:11.04px;font-family:Arial;-inkscape-font-specification:ArialMT;writing-mode:lr-tb;fill:#000000;fill-opacity:1;fill-rule:nonzero;stroke:none"
       id="text15948"><tspan
         x="0"
         y="0"
         id="tspan15946">•</tspan></text>
    <text
       xml:space="preserve"
       transform="matrix(1,0,0,-1,188.2662,374.0779)"
       style="font-variant:normal;font-weight:normal;font-stretch:normal;font-size:11.04px;font-family:Calibri;-inkscape-font-specification:Calibri;writing-mode:lr-tb;fill:#000000;fill-opacity:1;fill-rule:nonzero;stroke:none"
       id="text15952"><tspan
         x="0 5.7595682 11.04 14.76048 18.480961 24.000959 27.840672 33.601345 35.75856 41.519234 44.03635 48.356304 53.037266 58.917168 63.956928 69.476929 73.318848 80.514717 83.87088 89.511215 97.431313"
         y="0"
         sodipodi:role="line"
         id="tspan15950">Pattern discovery(5%)</tspan></text>
    <text
       xml:space="preserve"
       transform="matrix(1,0,0,-1,174.7062,360.8779)"
       style="font-variant:normal;font-weight:normal;font-stretch:normal;font-size:11.04px;font-family:Arial;-inkscape-font-specification:ArialMT;writing-mode:lr-tb;fill:#000000;fill-opacity:1;fill-rule:nonzero;stroke:none"
       id="text15956"><tspan
         x="0"
         y="0"
         id="tspan15954">•</tspan></text>
    <text
       xml:space="preserve"
       transform="matrix(1,0,0,-1,188.2662,360.8779)"
       style="font-variant:normal;font-weight:normal;font-stretch:normal;font-size:11.04px;font-family:Calibri;-inkscape-font-specification:Calibri;writing-mode:lr-tb;fill:#000000;fill-opacity:1;fill-rule:nonzero;stroke:none"
       id="text15960"><tspan
         x="0 9.4800482 12.00048 16.802879 20.523359 28.196159 31.556736 37.198177 42.839615 50.759712"
         y="0"
         sodipodi:role="line"
         id="tspan15958">Mixte(55%)</tspan></text>
    <text
       xml:space="preserve"
       transform="matrix(1,0,0,-1,649.6844,399.1035)"
       style="font-variant:normal;font-weight:normal;font-stretch:normal;font-size:11.04px;font-family:Arial;-inkscape-font-specification:ArialMT;writing-mode:lr-tb;fill:#000000;fill-opacity:1;fill-rule:nonzero;stroke:none"
       id="text15964"><tspan
         x="0"
         y="0"
         id="tspan15962">•</tspan></text>
    <text
       xml:space="preserve"
       transform="matrix(1,0,0,-1,663.2444,399.1035)"
       style="font-variant:normal;font-weight:normal;font-stretch:normal;font-size:11.04px;font-family:Calibri;-inkscape-font-specification:Calibri;writing-mode:lr-tb;fill:#000000;fill-opacity:1;fill-rule:nonzero;stroke:none"
       id="text15968"><tspan
         x="0 6.3601441 12.119712 15.840192 18.240288 23.999857 29.879761 34.559616 36.839375 40.199951 45.840286 53.759281"
         y="0"
         sodipodi:role="line"
         id="tspan15966">Ant hoc (3%)</tspan></text>
    <text
       xml:space="preserve"
       transform="matrix(1,0,0,-1,649.6844,385.9035)"
       style="font-variant:normal;font-weight:normal;font-stretch:normal;font-size:11.04px;font-family:Arial;-inkscape-font-specification:ArialMT;writing-mode:lr-tb;fill:#000000;fill-opacity:1;fill-rule:nonzero;stroke:none"
       id="text15972"><tspan
         x="0"
         y="0"
         id="tspan15970">•</tspan></text>
    <text
       xml:space="preserve"
       transform="matrix(1,0,0,-1,663.2444,385.9035)"
       style="font-variant:normal;font-weight:normal;font-stretch:normal;font-size:11.04px;font-family:Calibri;-inkscape-font-specification:Calibri;writing-mode:lr-tb;fill:#000000;fill-opacity:1;fill-rule:nonzero;stroke:none"
       id="text15978"><tspan
         x="0 5.7595682 11.639472 15.959424 19.559568 21.718992 27.479664 33.35957 38.040527 40.32029 43.676449 49.316784 54.957119 62.876114 66.232269 71.26651"
         y="0"
         sodipodi:role="line"
         id="tspan15974">Post hoc (97%) :</tspan><tspan
         x="1.4352 6.4749599 12.235632 17.755632 22.435488 24.952608 28.308767 30.825888 37.789921 41.14608 46.786415 52.42675 60.346848 63.703007 66.220131 70.540077 72.952316 79.312462 84.468147 90.227715 96.107613 100.42757 104.14805 106.66737 113.39184 116.75131 122.39275 128.03419 135.95428"
         y="13.20384"
         sodipodi:role="line"
         id="tspan15976">Specific(87%) / Agnostic(13%)</tspan></text>
    <text
       xml:space="preserve"
       transform="matrix(1,0,0,-1,593.0583,224.8669)"
       style="font-variant:normal;font-weight:normal;font-stretch:normal;font-size:11.04px;font-family:Arial;-inkscape-font-specification:ArialMT;writing-mode:lr-tb;fill:#000000;fill-opacity:1;fill-rule:nonzero;stroke:none"
       id="text15982"><tspan
         x="0"
         y="0"
         id="tspan15980">•</tspan></text>
    <text
       xml:space="preserve"
       transform="matrix(1,0,0,-1,606.6183,224.8669)"
       style="font-variant:normal;font-weight:normal;font-stretch:normal;font-size:11.04px;font-family:Calibri;-inkscape-font-specification:Calibri;writing-mode:lr-tb;fill:#000000;fill-opacity:1;fill-rule:nonzero;stroke:none"
       id="text15986"><tspan
         x="0 6.0002398 11.52024 16.680336 20.522257 26.042255 30.362207 34.683266 37.200382 43.080288 51.004799 54.364273 60.005711 65.647156 73.567245"
         y="0"
         sodipodi:role="line"
         id="tspan15984">Regression(12%)</tspan></text>
    <text
       xml:space="preserve"
       transform="matrix(1,0,0,-1,593.0583,211.6669)"
       style="font-variant:normal;font-weight:normal;font-stretch:normal;font-size:11.04px;font-family:Arial;-inkscape-font-specification:ArialMT;writing-mode:lr-tb;fill:#000000;fill-opacity:1;fill-rule:nonzero;stroke:none"
       id="text15990"><tspan
         x="0"
         y="0"
         id="tspan15988">•</tspan></text>
    <text
       xml:space="preserve"
       transform="matrix(1,0,0,-1,606.6183,211.6669)"
       style="font-variant:normal;font-weight:normal;font-stretch:normal;font-size:11.04px;font-family:Calibri;-inkscape-font-specification:Calibri;writing-mode:lr-tb;fill:#000000;fill-opacity:1;fill-rule:nonzero;stroke:none"
       id="text15994"><tspan
         x="0 5.99472 8.5118399 14.272512 19.549631 23.391552 28.431313 30.831408 35.511265 38.028385 43.305504 47.625458 51.945408 54.462528 57.818687 60.335808 65.015663 70.292786 74.013268 76.412254 82.172928 87.932495 90.096336 93.456909 99.096146 104.73648 112.65658"
         y="0"
         sodipodi:role="line"
         id="tspan15992">Binary classification (15%)</tspan></text>
    <text
       xml:space="preserve"
       transform="matrix(1,0,0,-1,593.0583,198.4669)"
       style="font-variant:normal;font-weight:normal;font-stretch:normal;font-size:11.04px;font-family:Arial;-inkscape-font-specification:ArialMT;writing-mode:lr-tb;fill:#000000;fill-opacity:1;fill-rule:nonzero;stroke:none"
       id="text15998"><tspan
         x="0"
         y="0"
         id="tspan15996">•</tspan></text>
    <text
       xml:space="preserve"
       transform="matrix(1,0,0,-1,606.6183,198.4669)"
       style="font-variant:normal;font-weight:normal;font-stretch:normal;font-size:11.04px;font-family:Calibri;-inkscape-font-specification:Calibri;writing-mode:lr-tb;fill:#000000;fill-opacity:1;fill-rule:nonzero;stroke:none"
       id="text16002"><tspan
         x="0 9.4800482 15.239616 17.760048 21.479424 24.000959 27.357121 32.036976 34.554096 39.831215 44.151169 48.350784 50.514626 55.194481 57.711601 62.98872 67.30867 71.628624 74.145744 77.501907 80.019028 84.698883 89.975998 93.576141 96.093262 101.85283 107.6135 109.77734 113.13792 118.77826 124.41859 132.33868"
         y="0"
         sodipodi:role="line"
         id="tspan16000">Multi-class classification (41%)</tspan></text>
    <text
       xml:space="preserve"
       transform="matrix(1,0,0,-1,593.0583,185.2669)"
       style="font-variant:normal;font-weight:normal;font-stretch:normal;font-size:11.04px;font-family:Arial;-inkscape-font-specification:ArialMT;writing-mode:lr-tb;fill:#000000;fill-opacity:1;fill-rule:nonzero;stroke:none"
       id="text16006"><tspan
         x="0"
         y="0"
         id="tspan16004">•</tspan></text>
    <text
       xml:space="preserve"
       transform="matrix(1,0,0,-1,606.6183,185.2669)"
       style="font-variant:normal;font-weight:normal;font-stretch:normal;font-size:11.04px;font-family:Calibri;-inkscape-font-specification:Calibri;writing-mode:lr-tb;fill:#000000;fill-opacity:1;fill-rule:nonzero;stroke:none"
       id="text16010"><tspan
         x="0 6.840384 11.880144 17.640816 21.482737 23.999857 32.28096 35.641537 41.282974 46.924416 54.844513"
         y="0"
         sodipodi:role="line"
         id="tspan16008">Hybrid(32%)</tspan></text>
    <text
       xml:space="preserve"
       transform="matrix(1,0,0,-1,410.9542,178.9798)"
       style="font-variant:normal;font-weight:normal;font-stretch:normal;font-size:11.04px;font-family:Arial;-inkscape-font-specification:ArialMT;writing-mode:lr-tb;fill:#000000;fill-opacity:1;fill-rule:nonzero;stroke:none"
       id="text16014"><tspan
         x="0"
         y="0"
         id="tspan16012">•</tspan></text>
    <text
       xml:space="preserve"
       transform="matrix(1,0,0,-1,424.5142,178.9798)"
       style="font-variant:normal;font-weight:normal;font-stretch:normal;font-size:11.04px;font-family:Calibri;-inkscape-font-specification:Calibri;writing-mode:lr-tb;fill:#000000;fill-opacity:1;fill-rule:nonzero;stroke:none"
       id="text16018"><tspan
         x="0 6.0002398 11.759808 14.276928 19.796928 22.197023 27.596687 32.396881 36.117359 39.959278 45.236401 49.916256 53.636738 56.153854 62.03376 67.672989 69.83683 73.197411 78.836639 84.476974 92.397072"
         y="0"
         sodipodi:role="line"
         id="tspan16016">Rule Extraction (39%)</tspan></text>
    <text
       xml:space="preserve"
       transform="matrix(1,0,0,-1,410.9542,165.7798)"
       style="font-variant:normal;font-weight:normal;font-stretch:normal;font-size:11.04px;font-family:Arial;-inkscape-font-specification:ArialMT;writing-mode:lr-tb;fill:#000000;fill-opacity:1;fill-rule:nonzero;stroke:none"
       id="text16022"><tspan
         x="0"
         y="0"
         id="tspan16020">•</tspan></text>
    <text
       xml:space="preserve"
       transform="matrix(1,0,0,-1,424.5142,165.7798)"
       style="font-variant:normal;font-weight:normal;font-stretch:normal;font-size:11.04px;font-family:Calibri;-inkscape-font-specification:Calibri;writing-mode:lr-tb;fill:#000000;fill-opacity:1;fill-rule:nonzero;stroke:none"
       id="text16026"><tspan
         x="0 5.0397601 10.55976 15.840192 19.560673 25.321344 29.161057 34.681057 39.001007 41.280769 47.161777 51.001488 53.520817 59.040817 64.801491 68.521965 74.041969 79.802643 81.966476 85.327057 90.966286 96.606621 104.5223"
         y="0"
         sodipodi:role="line"
         id="tspan16024">Features oriented (31%)</tspan></text>
    <text
       xml:space="preserve"
       transform="matrix(1,0,0,-1,410.9542,152.5798)"
       style="font-variant:normal;font-weight:normal;font-stretch:normal;font-size:11.04px;font-family:Arial;-inkscape-font-specification:ArialMT;writing-mode:lr-tb;fill:#000000;fill-opacity:1;fill-rule:nonzero;stroke:none"
       id="text16030"><tspan
         x="0"
         y="0"
         id="tspan16028">•</tspan></text>
    <text
       xml:space="preserve"
       transform="matrix(1,0,0,-1,424.5142,152.5798)"
       style="font-variant:normal;font-weight:normal;font-stretch:normal;font-size:11.04px;font-family:Calibri;-inkscape-font-specification:Calibri;writing-mode:lr-tb;fill:#000000;fill-opacity:1;fill-rule:nonzero;stroke:none"
       id="text16034"><tspan
         x="0 5.39856 10.91856 19.799135 25.558704 28.079136 33.358463 37.078945 42.598946 46.798561 56.638512 62.158512 67.798851 69.962685 72.482018 78.242691 81.963165 87.48317 91.323982 94.683456 99.96389 104.64375 110.16374 112.4435 115.80298 121.44331 127.08365 134.99933"
         y="0"
         sodipodi:role="line"
         id="tspan16032">Template/Web interface (14%)</tspan></text>
    <text
       xml:space="preserve"
       transform="matrix(1,0,0,-1,410.9542,139.3798)"
       style="font-variant:normal;font-weight:normal;font-stretch:normal;font-size:11.04px;font-family:Arial;-inkscape-font-specification:ArialMT;writing-mode:lr-tb;fill:#000000;fill-opacity:1;fill-rule:nonzero;stroke:none"
       id="text16038"><tspan
         x="0"
         y="0"
         id="tspan16036">•</tspan></text>
    <text
       xml:space="preserve"
       transform="matrix(1,0,0,-1,424.5142,139.3798)"
       style="font-variant:normal;font-weight:normal;font-stretch:normal;font-size:11.04px;font-family:Calibri;-inkscape-font-specification:Calibri;writing-mode:lr-tb;fill:#000000;fill-opacity:1;fill-rule:nonzero;stroke:none"
       id="text16042"><tspan
         x="0 5.0397601 10.31688 19.197456 24.957024 27.474144 32.994144 35.273903 39.593857 42.110977 50.99155 53.508671 56.025791 61.302914 65.144829 67.661949 71.382431 76.319519 79.675682 85.435249 90.715683 95.035629 100.4353 106.19597 108.35981 111.72038 117.35962 125.27971"
         y="0"
         sodipodi:role="line"
         id="tspan16040">Sample similarity-based (7%)</tspan></text>
    <text
       xml:space="preserve"
       transform="matrix(1,0,0,-1,410.9542,126.1798)"
       style="font-variant:normal;font-weight:normal;font-stretch:normal;font-size:11.04px;font-family:Arial;-inkscape-font-specification:ArialMT;writing-mode:lr-tb;fill:#000000;fill-opacity:1;fill-rule:nonzero;stroke:none"
       id="text16046"><tspan
         x="0"
         y="0"
         id="tspan16044">•</tspan></text>
    <text
       xml:space="preserve"
       transform="matrix(1,0,0,-1,424.5142,126.1798)"
       style="font-variant:normal;font-weight:normal;font-stretch:normal;font-size:11.04px;font-family:Calibri;-inkscape-font-specification:Calibri;writing-mode:lr-tb;fill:#000000;fill-opacity:1;fill-rule:nonzero;stroke:none"
       id="text16050"><tspan
         x="0 5.0397601 7.5601921 11.876832 17.396832 19.916161 23.756975 29.276976 35.036545 40.796112 45.477074 49.196449 51.715775 57.596783 63.356354 65.520195 68.880768 74.521103 82.4412"
         y="0"
         sodipodi:role="line"
         id="tspan16048">Size reduction (5%)</tspan></text>
    <text
       xml:space="preserve"
       transform="matrix(1,0,0,-1,410.9542,112.9798)"
       style="font-variant:normal;font-weight:normal;font-stretch:normal;font-size:11.04px;font-family:Arial;-inkscape-font-specification:ArialMT;writing-mode:lr-tb;fill:#000000;fill-opacity:1;fill-rule:nonzero;stroke:none"
       id="text16054"><tspan
         x="0"
         y="0"
         id="tspan16052">•</tspan></text>
    <text
       xml:space="preserve"
       transform="matrix(1,0,0,-1,424.5142,112.9798)"
       style="font-variant:normal;font-weight:normal;font-stretch:normal;font-size:11.04px;font-family:Calibri;-inkscape-font-specification:Calibri;writing-mode:lr-tb;fill:#000000;fill-opacity:1;fill-rule:nonzero;stroke:none"
       id="text16058"><tspan
         x="0 6.840384 11.880144 17.639711 21.479424 23.999857 29.759424 32.276543 35.636017 41.276352 49.196449"
         y="0"
         sodipodi:role="line"
         id="tspan16056">Hybrid (4%)</tspan></text>
    <text
       xml:space="preserve"
       transform="matrix(1,0,0,-1,200.0861,320.304)"
       style="font-variant:normal;font-weight:normal;font-stretch:normal;font-size:11.04px;font-family:Arial;-inkscape-font-specification:ArialMT;writing-mode:lr-tb;fill:#000000;fill-opacity:1;fill-rule:nonzero;stroke:none"
       id="text16062"><tspan
         x="0"
         y="0"
         id="tspan16060">•</tspan></text>
    <text
       xml:space="preserve"
       transform="matrix(1,0,0,-1,213.6461,320.304)"
       style="font-variant:normal;font-weight:normal;font-stretch:normal;font-size:11.04px;font-family:Calibri;-inkscape-font-specification:Calibri;writing-mode:lr-tb;fill:#000000;fill-opacity:1;fill-rule:nonzero;stroke:none"
       id="text16066"><tspan
         x="0 5.7595682 10.804848 14.524224 20.284897 26.164801 31.805136 33.968975 37.328449 42.969887 48.611328 56.531425"
         y="0"
         sodipodi:role="line"
         id="tspan16064">Python (48%)</tspan></text>
    <text
       xml:space="preserve"
       transform="matrix(1,0,0,-1,200.0861,307.104)"
       style="font-variant:normal;font-weight:normal;font-stretch:normal;font-size:11.04px;font-family:Arial;-inkscape-font-specification:ArialMT;writing-mode:lr-tb;fill:#000000;fill-opacity:1;fill-rule:nonzero;stroke:none"
       id="text16070"><tspan
         x="0"
         y="0"
         id="tspan16068">•</tspan></text>
    <text
       xml:space="preserve"
       transform="matrix(1,0,0,-1,213.6461,307.104)"
       style="font-variant:normal;font-weight:normal;font-stretch:normal;font-size:11.04px;font-family:Calibri;-inkscape-font-specification:Calibri;writing-mode:lr-tb;fill:#000000;fill-opacity:1;fill-rule:nonzero;stroke:none"
       id="text16074"><tspan
         x="0 6.0002398 8.5173597 11.87352 17.512753 23.153088 31.073183"
         y="0"
         sodipodi:role="line"
         id="tspan16072">R (38%)</tspan></text>
    <text
       xml:space="preserve"
       transform="matrix(1,0,0,-1,200.0861,293.904)"
       style="font-variant:normal;font-weight:normal;font-stretch:normal;font-size:11.04px;font-family:Arial;-inkscape-font-specification:ArialMT;writing-mode:lr-tb;fill:#000000;fill-opacity:1;fill-rule:nonzero;stroke:none"
       id="text16078"><tspan
         x="0"
         y="0"
         id="tspan16076">•</tspan></text>
    <text
       xml:space="preserve"
       transform="matrix(1,0,0,-1,213.6461,293.904)"
       style="font-variant:normal;font-weight:normal;font-stretch:normal;font-size:11.04px;font-family:Calibri;-inkscape-font-specification:Calibri;writing-mode:lr-tb;fill:#000000;fill-opacity:1;fill-rule:nonzero;stroke:none"
       id="text16082"><tspan
         x="0 7.31952 11.04 16.799568 22.319569 26.160383 32.75568 36.116257 41.757694 47.399136 55.319233"
         y="0"
         sodipodi:role="line"
         id="tspan16080">Others(12%)</tspan></text>
    <g
       id="g16084">
      <g
         id="g16086"
         clip-path="url(#clipPath16090)">
        <g
           id="g16092"
           transform="translate(391.56,329.88)">
          <path
             d="m 0,0 c 0,16.701 36.775,30.24 82.14,30.24 45.365,0 82.14,-13.539 82.14,-30.24 0,-16.701 -36.775,-30.24 -82.14,-30.24 C 36.775,-30.24 0,-16.701 0,0"
             style="fill:#ffffff;fill-opacity:1;fill-rule:evenodd;stroke:none"
             id="path16094" />
        </g>
        <g
           id="g16096"
           transform="translate(391.56,329.88)">
          <path
             d="m 0,0 c 0,16.701 36.775,30.24 82.14,30.24 45.365,0 82.14,-13.539 82.14,-30.24 0,-16.701 -36.775,-30.24 -82.14,-30.24 C 36.775,-30.24 0,-16.701 0,0 Z"
             style="fill:none;stroke:#2f528f;stroke-width:1;stroke-linecap:butt;stroke-linejoin:miter;stroke-miterlimit:8;stroke-dasharray:none;stroke-opacity:1"
             id="path16098" />
        </g>
      </g>
    </g>
    <text
       xml:space="preserve"
       transform="matrix(1,0,0,-1,437.6782,340.1938)"
       style="font-variant:normal;font-weight:normal;font-stretch:normal;font-size:12px;font-family:Calibri;-inkscape-font-specification:Calibri;writing-mode:lr-tb;fill:#002060;fill-opacity:1;fill-rule:nonzero;stroke:none"
       id="text16106"><tspan
         x="0 6.48 12.24 18.6 24.959999 31.32 43.439999 46.919998 53.279999 57.360001 63.360001 67.919998"
         y="0"
         sodipodi:role="line"
         id="tspan16100">Randomforest</tspan><tspan
         x="-2.04 0.72000003 6.96 10.92 16.92 21.120001 27.48 31.440001 37.318802 41.158798 46.9188 53.158798 55.9188 58.678799 61.438801 65.398804 70.800003"
         y="14.4"
         sodipodi:role="line"
         id="tspan16102">interpretability:</tspan><tspan
         x="-20.280001 -15.24 -12.48 -8.5200005 -2.52 1.4400001 7.0799999 11.16 17.52 21.48 29.879999 34.919998 37.68 43.439999 48.119999 52.799999 55.560001 59.279999 62.040001 66.959999 72.599998 76.68 79.440002 85.800003"
         y="28.799999"
         sodipodi:role="line"
         id="tspan16104">Literatureclassification</tspan></text>
  </g>
</svg>
