<?xml version="1.0" encoding="UTF-8" standalone="no"?>
<!-- Created with Inkscape (http://www.inkscape.org/) -->

<svg
   version="1.1"
   id="svg59"
   width="904"
   height="425.60001"
   viewBox="0 0 904 425.60001"
   sodipodi:docname="sankey_inputs_issue_outputs.svg"
   inkscape:version="1.2 (dc2aedaf03, 2022-05-15)"
   xmlns:inkscape="http://www.inkscape.org/namespaces/inkscape"
   xmlns:sodipodi="http://sodipodi.sourceforge.net/DTD/sodipodi-0.dtd"
   xmlns="http://www.w3.org/2000/svg"
   xmlns:svg="http://www.w3.org/2000/svg">
  <defs
     id="defs63" />
  <sodipodi:namedview
     id="namedview61"
     pagecolor="#ffffff"
     bordercolor="#666666"
     borderopacity="1.0"
     inkscape:showpageshadow="2"
     inkscape:pageopacity="0.0"
     inkscape:pagecheckerboard="0"
     inkscape:deskcolor="#d1d1d1"
     showgrid="false"
     inkscape:zoom="1.4347345"
     inkscape:cx="448.16654"
     inkscape:cy="212.93138"
     inkscape:window-width="1920"
     inkscape:window-height="1001"
     inkscape:window-x="-9"
     inkscape:window-y="-9"
     inkscape:window-maximized="1"
     inkscape:current-layer="g65" />
  <g
     inkscape:groupmode="layer"
     inkscape:label="Image"
     id="g65">
    <path
       style="fill:#f0e8a8;stroke-width:0.76772"
       d="m 261.61604,387.65247 c -44.0302,-0.72848 -111.11968,-1.58641 -149.08774,-1.90653 l -69.032849,-0.58203 v -15.01333 -15.01335 l 9.475097,-0.50117 c 10.956855,-0.57952 20.706361,-2.01453 32.56927,-4.79379 7.567153,-1.77284 9.136057,-1.90245 15.856282,-1.30994 l 7.45818,0.65759 -10.828682,3.24961 c -12.6396,3.79305 -26.839107,6.79274 -36.485975,7.70778 l -6.828751,0.64773 7.348034,0.10185 c 16.136198,0.22363 64.719024,-2.89425 92.430534,-5.93184 l 13.14911,-1.44136 24.75127,2.55773 c 13.6132,1.40674 26.14353,2.6605 27.84518,2.78614 3.5524,0.26228 -12.63287,2.37 -51.54867,6.71289 -28.50419,3.18099 -59.40807,5.75505 -80.329198,6.69084 -10.079918,0.45086 -2.195118,0.69367 37.513648,1.15526 27.65181,0.32143 79.51346,1.09315 115.24811,1.71494 35.73465,0.62178 96.55897,1.34795 135.16515,1.61369 l 70.19306,0.48318 v 5.97844 5.97845 l -52.40308,-0.10914 c -28.8217,-0.06 -88.42779,-0.70517 -132.45798,-1.43364 z m 93.97748,-44.62792 c -0.85082,-0.16872 -10.9447,-1.16382 -22.43084,-2.21131 -31.30045,-2.85447 -31.35221,-2.86001 -31.68628,-3.39252 -0.56717,-0.90409 49.86969,-6.08529 77.70818,-7.98268 15.99892,-1.09044 54.02352,-2.72731 63.35569,-2.72731 h 3.93683 v 6.09605 6.09605 l -3.28728,0.008 c -14.44658,0.0333 -71.34137,2.85388 -83.32935,4.13113 -1.49599,0.1594 -3.41612,0.15175 -4.26695,-0.017 z m -195.98527,-20.81956 -4.1629,-0.4473 3.69038,-1.75611 c 3.08937,-1.4701 4.38462,-1.67065 7.95313,-1.2314 l 4.26275,0.5247 -3.01675,1.799 c -1.6592,0.98946 -3.36481,1.74488 -3.79022,1.67871 -0.42541,-0.0661 -2.64678,-0.32158 -4.93639,-0.5676 z M 379.18458,189.87714 c 17.66141,-6.79165 45.22114,-12.51965 60.23712,-12.51965 h 7.0554 v 2.93998 2.93995 l -10.24857,0.42864 c -11.67568,0.48832 -20.1561,1.83724 -33.45289,5.32113 -7.67767,2.01163 -10.95262,2.46574 -18.9502,2.62761 l -9.66846,0.19569 z M 837.71157,144.8327 c 0.55837,-0.22012 1.22549,-0.19305 1.48252,0.0601 0.25703,0.2532 -0.19987,0.4333 -1.01519,0.40021 -0.9011,-0.0366 -1.08434,-0.21712 -0.46733,-0.46037 z M 464.84719,67.123929 c 0.53176,-0.21139 1.40192,-0.21139 1.93369,0 0.53177,0.21139 0.0967,0.384345 -0.96685,0.384345 -1.06353,0 -1.49861,-0.172955 -0.96684,-0.384345 z"
       id="path219" />
    <path
       style="fill:#c6f4bb;stroke-width:0.76772"
       d="m 405.86955,376.48221 c -36.69067,-1.50742 -92.73284,-6.60447 -162.26015,-14.7576 -10.54177,-1.23619 -19.59145,-2.28313 -20.11041,-2.32654 -1.67461,-0.14007 53.25647,-7.36461 77.17765,-10.15041 50.66586,-5.90042 53.01798,-6.0661 71.93338,-5.06713 28.43563,1.50175 49.66939,2.29517 62.07155,2.31936 l 11.79553,0.023 v 15.24012 15.24013 l -17.59661,-0.1492 c -9.67813,-0.0821 -20.03306,-0.24934 -23.01094,-0.37169 z M 161.77302,353.09728 c -0.17726,-0.15603 -10.24213,-1.0324 -22.36639,-1.94751 -12.12425,-0.91511 -23.59529,-1.8478 -25.49119,-2.07265 l -3.4471,-0.40881 8.47469,-3.40224 c 10.06754,-4.0417 32.41357,-14.67054 40.57401,-19.29894 l 5.80108,-3.29023 19.72367,2.08205 c 10.84802,1.14513 37.12691,4.08219 58.39753,6.5268 21.27063,2.4446 41.5454,4.68843 45.05505,4.9863 3.50966,0.29785 6.38119,0.84017 6.38119,1.20516 0,0.36499 -1.00835,0.66362 -2.24078,0.66362 -1.23243,0 -12.80559,1.37179 -25.71812,3.04843 -12.91254,1.67663 -33.91928,4.40248 -46.68166,6.05744 -39.64817,5.14133 -57.26482,6.90432 -58.46198,5.85058 z m -88.885433,-5.85451 c -7.444718,-0.29382 -17.103516,-0.57599 -21.463994,-0.62704 l -7.928142,-0.0929 V 331.7167 c 0,-14.74865 0.0068,-14.80741 1.740324,-15.13636 l 1.740324,-0.33022 -1.740324,-0.10378 -1.740324,-0.10376 V 169.24319 22.443752 l 15.276176,0.531785 c 53.134233,1.84968 87.930053,5.911803 177.133933,20.678916 26.48611,4.384603 48.93629,7.97131 49.88928,7.97046 0.95297,-8.51e-4 9.39011,-3.221053 18.74919,-7.156007 29.58099,-12.437105 52.78724,-20.450238 75.14209,-25.946615 19.67986,-4.838671 47.47936,-8.8061781 61.70312,-8.8061781 h 5.08786 V 34.026987 58.33786 l -8.31488,0.467828 c -13.39234,0.753506 -24.61381,1.98664 -35.68671,3.921633 -5.69543,0.99528 -10.49118,1.943425 -10.6572,2.106991 -0.50824,0.500691 40.25434,2.760737 50.2113,2.783923 l 4.44749,0.01035 v 54.864455 54.86445 l -8.70162,-0.004 C 410.20447,177.3413 361.24766,172.98494 317.50478,166.65161 303.1568,164.57424 199.09226,147.7338 191.7816,146.30623 l -2.92865,-0.57188 9.50321,-4.15865 c 5.22676,-2.28735 19.77112,-8.92293 32.32079,-14.74584 87.32898,-40.519671 114.09057,-51.023151 155.85566,-61.170766 1.63445,-0.39712 -1.89465,-0.970713 -11.9376,-1.94025 -19.94195,-1.925176 -41.70217,-4.667747 -66.67527,-8.40348 l -21.37556,-3.197577 -19.23199,8.843855 c -10.57761,4.86412 -26.36733,12.160794 -35.08829,16.214819 -57.1356,26.560109 -88.89118,38.756379 -122.59669,47.085369 -15.267562,3.77278 -34.928655,7.04103 -47.568304,7.90727 -8.053797,0.55195 -7.966734,0.5642 10.441943,1.46899 22.979081,1.12942 35.329361,2.10148 57.624051,4.53544 21.50876,2.34816 55.86214,7.13579 56.69215,7.90085 0.85903,0.79179 -32.54944,13.79449 -49.34411,19.20491 -24.69569,7.95575 -47.773522,13.04904 -69.612955,15.3636 -9.24192,0.97948 -9.144061,0.98606 22.817579,1.53295 36.776006,0.62927 68.092066,1.52349 110.607246,3.15833 95.63516,3.67749 134.13219,5.08237 152.6779,5.57167 l 20.80004,0.54877 -6.49072,2.59343 c -10.86,4.33924 -39.31794,18.74328 -52.73803,26.69346 -17.2444,10.21574 -34.79024,21.3663 -55.07818,35.00275 -46.90178,31.52483 -71.4132,47.30909 -91.27031,58.77404 l -6.9613,4.01925 -35.44029,-0.94054 c -19.49217,-0.51728 -35.648173,-0.73573 -35.90224,-0.48544 -0.254068,0.25031 2.119539,0.45942 5.274679,0.46471 3.155145,0.006 14.786311,0.68251 25.847031,1.50493 30.74915,2.28637 32.87279,2.48281 32.87279,3.04081 0,0.68371 -25.34774,12.76638 -35.09195,16.72752 -11.72963,4.76823 -26.53854,9.2162 -30.172048,9.06242 -1.753809,-0.0742 -9.279876,-0.37536 -16.724595,-0.66918 z M 380.3448,326.1962 c -26.72403,-0.48723 -196.17857,-6.49875 -205.68439,-7.29681 -1.9551,-0.16414 -0.80765,-1.05089 8.50825,-6.57516 10.9547,-6.49606 36.57949,-23.22636 79.48972,-51.89843 24.0356,-16.0603 49.89378,-32.29123 62.77856,-39.40549 12.6619,-6.99122 34.61649,-17.47288 46.39961,-22.15231 19.15953,-7.60885 16.63598,-7.25823 47.63057,-6.61769 l 27.00998,0.55819 v 66.95111 66.95112 l -28.03855,-0.16561 c -15.4212,-0.0911 -32.56339,-0.2481 -38.09375,-0.34892 z"
       id="path217" />
    <path
       style="fill:#f9cfac;stroke-width:0.76772"
       d="m 850.61897,311.09993 c -15.13332,-2.34286 -31.44147,-8.11348 -48.96838,-17.32741 -10.43532,-5.48585 -31.9067,-19.31162 -32.41639,-20.87341 -0.15296,-0.46871 1.04086,-1.20666 2.65294,-1.6399 1.61208,-0.43324 8.84816,-2.37667 16.08017,-4.31873 18.51921,-4.97311 34.64196,-8.06948 37.75567,-7.251 5.61684,1.47641 19.45171,3.07685 30.5037,3.5287 l 11.79553,0.48224 v 24.2661 24.26609 l -5.60771,-0.0873 c -3.08424,-0.0481 -8.39223,-0.51844 -11.79553,-1.04532 z m -74.25382,-15.17554 c -13.87838,-4.82936 -31.03019,-11.28542 -33.85144,-12.74191 -1.98817,-1.02641 -1.85724,-1.1127 6.04936,-3.98711 l 8.08152,-2.93797 7.92013,5.98601 c 4.35607,3.2923 11.90861,8.6435 16.78342,11.89155 4.87481,3.24806 8.35836,5.88781 7.74123,5.86613 -0.61713,-0.0216 -6.34303,-1.8562 -12.72422,-4.0767 z m -64.08954,-25.97406 c -6.74661,-3.09992 -12.45248,-5.81937 -12.67972,-6.04323 -0.65705,-0.64732 0.82667,-0.99572 17.59825,-4.13239 9.81496,-1.83562 16.29834,-2.71725 17.0165,-2.31394 0.63812,0.35835 3.54413,2.81183 6.4578,5.45217 l 5.29759,4.80064 -10.16359,3.97136 c -5.58998,2.18425 -10.41035,3.95567 -10.71193,3.93649 -0.30159,-0.0192 -6.06828,-2.57118 -12.8149,-5.6711 z m 38.89922,-10.59743 -5.64835,-4.62647 3.43045,-0.58575 c 1.88673,-0.32216 10.31102,-1.58915 18.72062,-2.81553 l 15.2902,-2.2298 4.82021,1.56925 c 2.65112,0.8631 5.08119,1.79857 5.40017,2.07884 0.31898,0.28027 -2.11748,1.15478 -5.41434,1.94337 -3.29686,0.78858 -11.60946,3.20202 -18.47244,5.36318 l -12.47816,3.92939 z m 120.90813,-4.07187 c 2.44612,-0.15122 6.44887,-0.15122 8.89499,0 2.44612,0.15122 0.44475,0.27495 -4.44749,0.27495 -4.89225,0 -6.89362,-0.12373 -4.4475,-0.27495 z M 588.61254,212.19158 c -4.14283,-1.76595 -7.53424,-3.38227 -7.53645,-3.59182 -0.002,-0.20955 5.47575,-2.21538 12.17327,-4.45739 6.69752,-2.24201 19.97448,-6.95692 29.50435,-10.47759 9.52986,-3.52066 17.79397,-6.40121 18.36469,-6.40121 0.57071,0 7.47657,3.16622 15.34633,7.03603 l 14.30867,7.03602 -12.17621,2.48686 c -18.89141,3.85834 -55.10272,10.71843 -58.97159,11.17193 -2.92117,0.34241 -4.69139,-0.1081 -11.01306,-2.80283 z m -82.74792,-25.36381 c -11.29379,-2.21611 -26.62637,-3.43987 -42.89542,-3.4237 l -16.50175,0.0164 0.1982,-58.08645 0.19819,-58.086412 15.85628,-0.107183 c 8.72096,-0.05895 21.89322,-0.318369 29.27169,-0.576482 l 13.41542,-0.469297 8.24194,3.503033 c 17.52093,7.446823 35.99187,18.445012 55.13373,32.828381 10.53841,7.91865 10.84587,8.22808 8.70129,8.75693 -1.22272,0.30152 -10.05458,1.76449 -19.62636,3.25104 -27.09211,4.20753 -56.08947,7.16247 -72.6681,7.40515 -4.06274,0.0595 5.14353,0.55177 20.45838,1.094 27.3725,0.96912 53.90644,2.44274 81.01875,4.49956 l 13.72624,1.04131 6.95829,6.28647 c 3.82708,3.45757 6.82234,6.42044 6.65616,6.58416 -0.16618,0.16371 -6.86373,-0.23395 -14.88345,-0.8837 -35.53827,-2.87926 -92.78978,-5.88119 -108.17206,-5.6719 l -6.18781,0.0842 5.0276,0.66941 c 32.32615,4.30416 60.3311,12.0452 96.20722,26.59328 l 9.9645,4.0407 -3.77669,1.46704 c -12.15175,4.72035 -50.09835,14.97617 -68.17372,18.42531 -11.45306,2.18547 -10.97884,2.16565 -18.14852,0.75878 z M 463.4936,125.16006 V 67.628591 h -8.12151 -8.12151 v 57.531469 57.53148 h 8.12151 8.12151 z m 388.28558,31.85511 c -10.61566,-0.80487 -37.97912,-5.19202 -42.54125,-6.82059 -0.68978,-0.24626 1.19178,-1.35944 4.64087,-2.74568 6.4839,-2.60593 7.45353,-2.66354 38.48049,-2.28617 l 15.66292,0.1905 v 6.09605 6.09605 l -6.38119,-0.13312 c -3.50965,-0.0733 -7.94748,-0.25188 -9.86184,-0.39704 z M 742.17704,152.258 c -3.4886,-0.26363 -6.52948,-0.66311 -6.75748,-0.88774 -0.22801,-0.22463 1.75682,-1.1636 4.41073,-2.08662 l 4.8253,-1.67821 6.57305,2.65082 6.57306,2.65082 -4.64087,-0.0849 c -2.55247,-0.0467 -7.49517,-0.30058 -10.98379,-0.56421 z m 44.63005,-8.04778 c -2.68834,-1.01992 -2.66952,-1.02728 2.70717,-1.05804 5.0727,-0.029 5.29229,0.0377 3.48065,1.05804 -2.33011,1.31226 -2.72893,1.31226 -6.18782,0 z m -149.75306,-0.67361 -7.81998,-0.8504 -7.26283,-6.63148 c -7.06615,-6.45189 -7.18951,-6.62197 -4.55564,-6.28108 1.48894,0.19271 15.2375,1.38077 30.55235,2.64014 15.31485,1.25937 28.54131,2.37135 29.39213,2.47106 0.85083,0.0997 -4.04907,2.32444 -10.88866,4.94383 -13.79201,5.28201 -14.32497,5.34919 -29.41737,3.70793 z M 584.32496,102.35483 C 567.76957,88.55845 547.91754,74.542076 535.17157,67.650425 c -3.26281,-1.764186 -5.9324,-3.443693 -5.9324,-3.732239 0,-0.288546 4.55824,-1.091803 10.12944,-1.785013 l 10.12945,-1.260383 7.85389,2.685187 c 19.46423,6.654663 46.99888,18.104187 70.8071,29.443183 l 11.90369,5.669298 -5.71587,1.246538 c -3.14373,0.685594 -13.99342,2.924024 -24.11042,4.974304 l -18.39454,3.72775 z M 646.03423,83.103201 C 625.57295,73.206554 603.70639,63.207448 591.25712,58.054808 l -7.20828,-2.983437 17.93503,-3.532572 c 9.86427,-1.942915 18.503,-3.402271 19.19717,-3.243012 28.28057,6.488203 86.0705,19.131922 103.74787,22.698751 l 23.59106,4.76005 -11.21542,2.086922 c -6.16848,1.14781 -24.63999,4.977356 -41.04781,8.510109 -16.40781,3.532745 -29.98234,6.393545 -30.16561,6.357321 -0.18327,-0.03622 -9.20888,-4.358807 -20.0569,-9.605739 z M 855.25983,63.306277 C 816.4585,62.017138 782.63855,57.689965 730.72999,47.373006 693.84171,40.041365 676.13198,36.008727 678.13354,35.396394 681.15,34.473568 715.5245,27.283464 733.43716,23.828546 785.16472,13.851558 825.38907,8.9813436 856.22668,8.9616429 l 11.79553,-0.00754 V 36.386333 63.81856 l -3.28728,-0.15335 c -1.80801,-0.08434 -6.0718,-0.245862 -9.4751,-0.358933 z"
       id="path215" />
    <path
       style="fill:#bdc2f3;stroke-width:0.76772"
       d="m 830.12182,367.0322 c -43.74166,-1.93344 -85.87214,-5.3539 -149.28111,-12.11974 -49.15361,-5.24476 -71.24471,-7.53222 -81.80688,-8.47082 -5.64313,-0.50148 -10.16797,-0.99386 -10.0552,-1.09418 0.11277,-0.10032 7.16632,-2.9232 15.67457,-6.27305 13.32353,-5.24574 45.28287,-18.70344 61.49144,-25.89332 l 5.0276,-2.23017 15.85629,1.76772 c 59.39224,6.62132 129.25315,11.70607 160.83299,11.70607 5.85863,0 12.79146,0.22031 15.40635,0.48956 l 4.75434,0.48955 v 21.22763 21.22762 l -12.18227,-0.11428 c -6.70025,-0.0629 -18.2734,-0.38353 -25.71812,-0.71259 z M 543.39339,341.99757 c -3.48861,-0.26364 -6.5051,-0.63917 -6.70331,-0.83453 -0.1982,-0.19535 4.39644,-2.8877 10.21032,-5.98299 13.48719,-7.18053 22.42473,-12.68675 37.82217,-23.30142 10.7163,-7.38758 12.69376,-8.47808 14.97824,-8.25997 11.60754,1.10823 47.51341,4.9504 47.66585,5.10058 0.31716,0.31245 -35.56145,15.26935 -49.63066,20.68977 -7.20776,2.77693 -18.65643,6.90631 -25.4415,9.17641 -13.26738,4.43888 -14.06627,4.53321 -28.90111,3.41215 z m -96.61444,-3.42522 c -0.17271,-0.4469 -0.22426,-33.55975 -0.11457,-73.58413 l 0.19946,-72.7716 17.40324,-0.10509 c 15.44329,-0.0932 42.12574,-2.20805 47.26046,-3.74579 1.60027,-0.47925 18.28696,3.41617 31.63422,7.38485 14.32605,4.25971 35.8259,12.15722 35.05347,12.87613 -0.34855,0.3244 -4.11438,1.63063 -8.36851,2.90272 -24.02518,7.18416 -48.91221,12.63117 -68.06599,14.89756 -14.9859,1.77321 -15.50666,1.90956 -5.80108,1.51892 21.17847,-0.85245 54.12607,-4.5355 81.98859,-9.16513 9.14636,-1.51975 17.49992,-2.76892 18.56345,-2.77593 1.06353,-0.007 9.06902,3.2656 17.78998,7.27244 15.9286,7.3184 40.91934,19.2849 41.52924,19.88575 0.82627,0.81402 -43.88468,36.87299 -46.43121,37.44634 -3.8911,0.87607 -28.31925,5.00403 -42.28015,7.14466 -23.52003,3.60631 -51.14298,6.51039 -72.32012,7.60319 l -10.82868,0.5588 10.82868,0.55517 c 5.95578,0.30533 17.96401,0.90444 26.68497,1.33134 12.69653,0.62152 48.72595,3.08268 57.99164,3.9614 1.53797,0.14586 0.0166,1.40102 -7.73478,6.38138 -17.94079,11.52717 -38.56553,22.20461 -54.51099,28.22039 l -7.73477,2.91812 -31.21126,0.0505 c -21.4339,0.0347 -31.30963,-0.20402 -31.52529,-0.76201 z m 16.71465,-72.82212 v -73.15261 h -8.12151 -8.12151 v 73.15261 73.1526 h 8.12151 8.12151 z m 170.2285,8.96724 c 5.89255,-5.09885 30.05851,-24.92963 31.34101,-25.71869 1.29374,-0.79597 3.6494,0.1308 17.21214,6.77163 8.6423,4.23159 15.58438,7.6938 15.42684,7.6938 -0.28567,0 -60.37319,11.79571 -64.04349,12.57229 l -1.9337,0.40915 z m 136.06849,-29.84709 c -20.41682,-7.39234 -62.25673,-25.12459 -64.80689,-27.46594 -0.79266,-0.72776 1.17368,-2.62054 9.66847,-9.30685 10.93165,-8.60438 21.53856,-16.57428 24.97474,-18.76569 1.17345,-0.74837 8.78755,-2.29076 19.33693,-3.91708 37.19815,-5.7346 63.84955,-8.38811 93.78219,-9.33733 l 15.27618,-0.48443 v 33.56121 33.56122 l -13.34249,0.49845 c -19.99237,0.74688 -45.92606,2.6344 -58.97764,4.29253 -6.38118,0.81069 -12.29829,1.4629 -13.14911,1.44933 -0.85083,-0.0135 -6.59389,-1.85199 -12.76238,-4.08542 z m -79.25126,-40.81272 c -3.64416,-3.61784 -4.99002,-5.41714 -4.23337,-5.65965 2.38884,-0.76564 30.30047,-5.86554 30.91817,-5.64924 0.73205,0.25634 -19.62546,16.613 -20.67656,16.613 -0.36605,0 -3.06975,-2.38686 -6.00824,-5.30411 z m -16.27318,-0.9933 c -2.84062,-1.52226 -2.9426,-1.68094 -1.24572,-1.93825 1.22141,-0.18522 2.527,0.38849 3.84981,1.69168 2.42194,2.38602 1.54343,2.4692 -2.60409,0.24657 z M 630.17795,181.722 c -5.53036,-2.6487 -15.3579,-7.17695 -21.83899,-10.06278 -6.48107,-2.88583 -11.70204,-5.31072 -11.60215,-5.38863 0.0999,-0.0779 5.05452,-1.88324 11.0103,-4.01183 5.95577,-2.1286 13.11976,-4.72113 15.91996,-5.76118 l 5.09129,-1.89099 13.33374,13.1521 13.33374,13.1521 -5.72481,2.36742 c -9.02679,3.73293 -8.37033,3.78526 -19.52308,-1.55621 z m 20.7353,-17.31861 -13.29769,-13.33511 7.55776,-2.85753 c 4.15677,-1.57164 8.74847,-2.85548 10.20378,-2.85299 1.45532,0.002 16.74265,1.19079 33.97186,2.64067 17.22921,1.44988 34.07241,2.85942 37.42933,3.13232 l 6.1035,0.49617 -11.152,4.00113 c -10.96353,3.93351 -51.79928,19.53808 -55.58515,21.24077 -1.8449,0.82975 -2.54434,0.25731 -15.23139,-12.46543 z m 108.4354,-29.6142 c -10.37289,-3.94612 -25.92969,-10.34385 -34.98566,-14.38782 l -3.2731,-1.46161 14.87526,-5.06938 C 781.91919,98.209568 822.09607,89.655625 855.4532,88.430532 l 12.56901,-0.461616 v 18.405074 18.40507 l -4.83424,0.0298 c -20.71898,0.12782 -52.92317,4.70421 -77.70819,11.0428 -7.32393,1.87303 -13.5891,3.39331 -13.92259,3.3784 -0.33352,-0.0149 -5.82735,-2.01332 -12.20854,-4.44091 z m -61.49144,1.88944 -18.95019,-1.61249 10.11601,-3.86588 10.11601,-3.86589 3.0331,1.39284 c 1.66821,0.76608 7.03585,3.27411 11.92809,5.57341 10.4921,4.93118 11.69417,4.7552 -16.24302,2.37801 z M 43.495451,11.621129 V 8.9541066 L 34.793832,8.820165 C 30.007942,8.746498 57.418042,8.4395876 95.705166,8.1381417 133.99229,7.8366959 185.15781,7.2053175 209.40632,6.7350777 312.9261,4.7275659 337.61024,4.4088773 390.59337,4.3958303 L 446.4771,4.3820694 V 6.9255088 9.4689485 L 385.56577,9.9707411 C 352.06453,10.246726 306.90313,10.815128 285.20709,11.233856 192.80261,13.017237 106.6277,14.2732 76.174866,14.280412 l -32.679415,0.0077 z"
       id="path213" />
    <path
       style="fill:#f6abbd;stroke-width:0.76772"
       d="m 446.78009,388.874 c -0.18068,-0.46387 -0.22992,-10.26836 -0.10943,-21.78775 l 0.2191,-20.94436 0.18041,21.52668 0.18041,21.52668 h 8.12151 8.12151 v -21.33618 -21.33618 h 5.38775 c 7.67576,0 20.71947,-1.93169 30.5017,-4.51711 l 8.40308,-2.22091 12.83564,0.74783 c 7.05961,0.41129 12.94496,0.8555 13.07858,0.98714 0.13362,0.13163 -4.03509,1.97097 -9.26379,4.08743 -15.33375,6.20673 -30.45686,10.33479 -45.08667,12.30706 -5.0317,0.67833 -4.84037,0.70272 2.70717,0.34511 16.87404,-0.79953 40.00874,-4.86755 62.87877,-11.05667 7.57644,-2.05034 15.06261,-3.73132 16.63594,-3.73551 6.69694,-0.0178 25.69613,1.84215 24.65887,2.41403 -2.65622,1.46445 -29.93294,10.16249 -42.68214,13.61054 -20.69472,5.59695 -36.86162,8.53509 -60.33123,10.96448 -5.82685,0.60316 140.71688,-0.32103 228.17579,-1.439 48.07161,-0.61449 102.97883,-1.12647 122.01604,-1.13775 l 34.61311,-0.0205 v 9.02393 9.02392 l -75.22067,0.47193 c -41.37136,0.25958 -117.68456,0.98457 -169.58489,1.61111 -140.93785,1.70142 -176.04966,1.87735 -176.43656,0.88404 z m 210.66293,-79.13417 c -4.14777,-0.43079 -7.5414,-1.0025 -7.5414,-1.27049 0,-1.01058 77.2853,-33.89054 78.00172,-33.18474 0.20752,0.20444 -0.11579,0.37848 -0.71844,0.38677 -0.60268,0.009 2.1567,1.433 6.13195,3.16603 l 7.22773,3.15097 -14.9625,5.88586 c -8.22938,3.23722 -23.49008,9.58088 -33.91269,14.09702 -20.95972,9.0819 -21.15478,9.12617 -34.22637,7.76858 z m -71.74001,-7.347 -4.25413,-0.4473 3.86739,-2.6227 c 2.12706,-1.4425 8.56626,-6.0925 14.30933,-10.33334 5.74307,-4.24084 10.87925,-7.96858 11.41372,-8.28386 0.92246,-0.54414 19.52537,-4.26108 19.52537,-3.90125 0,0.32283 -11.22651,9.28064 -22.28073,17.77814 -12.25724,9.42227 -11.08993,9.01853 -22.58095,7.81031 z m 155.46893,-32.83257 c 0.63812,-0.40627 1.50828,-0.73867 1.93369,-0.73867 0.42541,0 0.25138,0.3324 -0.38674,0.73867 -0.63812,0.40626 -1.50828,0.73866 -1.93369,0.73866 -0.42541,0 -0.25138,-0.3324 0.38674,-0.73866 z m 60.1862,-6.61659 c 0.55837,-0.22012 1.22549,-0.19305 1.48252,0.0601 0.25703,0.2532 -0.19987,0.4333 -1.01519,0.40021 -0.9011,-0.0366 -1.08434,-0.21712 -0.46733,-0.46036 z m 15.46954,-3.04802 c 0.55837,-0.22012 1.2255,-0.19305 1.48252,0.0601 0.25703,0.25321 -0.19986,0.43331 -1.01518,0.40022 -0.90111,-0.0366 -1.08434,-0.21713 -0.46734,-0.46037 z m -4.88257,-2.50078 c -19.14179,-4.43252 -18.71529,-4.31036 -16.62977,-4.76284 26.33961,-5.71492 42.985,-8.15095 59.75112,-8.74454 l 12.95575,-0.45868 v 5.71583 5.71583 l -10.63532,0.53183 c -9.61703,0.4809 -32.40985,2.95501 -35.0833,3.80822 -0.59217,0.18901 -5.25353,-0.62353 -10.35848,-1.80565 z m -29.92391,-1.30925 c 0.55836,-0.22013 1.22548,-0.19306 1.48251,0.0601 0.25702,0.25321 -0.19983,0.43331 -1.01519,0.40022 -0.90106,-0.0366 -1.08434,-0.21713 -0.46732,-0.46037 z m -60.95967,-65.15054 c 7.41461,-6.4779 46.62905,-33.38975 48.65367,-33.38975 1.18681,0 12.58683,3.9304 12.27878,4.23336 -0.11797,0.11603 -4.84218,2.96933 -10.49824,6.34069 -5.65608,3.37135 -15.05383,9.3274 -20.88389,13.23566 l -10.60013,7.10593 -8.24632,1.35999 c -4.53548,0.74801 -9.06032,1.53275 -10.05521,1.74388 -1.5593,0.33092 -1.64879,0.24403 -0.64866,-0.62976 z m 90.1101,-46.37931 c -5.10495,-0.28595 -11.02205,-0.56975 -13.14912,-0.63067 l -3.86738,-0.11077 4.25412,-1.97472 c 20.3208,-9.43271 42.594,-15.41337 62.07155,-16.66709 l 7.54141,-0.48541 v 6.14202 6.14203 h -5.08028 c -9.73112,0 -26.37642,3.11958 -41.32836,7.74557 -0.63812,0.19743 -5.33699,0.125 -10.44194,-0.16096 z"
       id="path211" />
    <path
       style="fill:#deb0ce;stroke-width:0.76772"
       d="m 464.12205,389.43672 c 0.55836,-0.22012 1.22548,-0.19306 1.48251,0.0601 0.25701,0.2532 -0.19983,0.4333 -1.01519,0.40022 -0.90106,-0.0366 -1.08434,-0.21712 -0.46732,-0.46037 z m 100.89044,-0.79658 c 1.5953,-0.16439 4.20578,-0.16439 5.80108,0 1.5953,0.16441 0.29005,0.29891 -2.90054,0.29891 -3.19059,0 -4.49584,-0.1345 -2.90054,-0.29891 z m 64.59921,-0.75915 c 1.39021,-0.16959 3.4786,-0.16609 4.64086,0.008 1.16227,0.17388 0.0249,0.31263 -2.52766,0.30835 -2.55247,-0.005 -3.50341,-0.14653 -2.1132,-0.31612 z m 63.79802,-0.76486 c 1.59529,-0.16439 4.20578,-0.16439 5.80108,0 1.59529,0.1644 0.29005,0.29891 -2.90054,0.29891 -3.1906,0 -4.49584,-0.13451 -2.90054,-0.29891 z m 65.74556,-0.76201 c 1.5953,-0.16439 4.20579,-0.16439 5.80108,0 1.5953,0.16441 0.29006,0.29891 -2.90054,0.29891 -3.19059,0 -4.49583,-0.1345 -2.90054,-0.29891 z M 573.89023,370.35714 c 1.3731,-0.16834 3.80955,-0.17111 5.41434,-0.006 1.60478,0.16496 0.48134,0.30268 -2.49655,0.30606 -2.97789,0.003 -4.29089,-0.13158 -2.91779,-0.29991 z m 63.05565,-0.76715 c 1.59529,-0.1644 4.20578,-0.1644 5.80108,0 1.59529,0.1644 0.29005,0.2989 -2.90054,0.2989 -3.1906,0 -4.49584,-0.1345 -2.90054,-0.2989 z m 65.74556,-0.76201 c 1.5953,-0.16439 4.20579,-0.16439 5.80108,0 1.5953,0.1644 0.29006,0.29891 -2.90054,0.29891 -3.19059,0 -4.49583,-0.13451 -2.90054,-0.29891 z m 66.15275,-0.76584 c 1.81925,-0.16096 4.60377,-0.1587 6.18782,0.006 1.58405,0.16374 0.0956,0.29544 -3.30772,0.29267 -3.4033,-0.003 -4.69935,-0.13673 -2.8801,-0.29771 z m -287.1684,-10.10043 c -0.27098,-0.43195 0.0395,-0.55969 0.72783,-0.29947 1.33998,0.50657 1.58516,1.05275 0.47257,1.05275 -0.40032,0 -0.94049,-0.33897 -1.2004,-0.75328 z m 236.92028,-98.82807 c 0.55835,-0.22012 1.22548,-0.19305 1.4825,0.0601 0.25702,0.2532 -0.19982,0.4333 -1.01519,0.40021 -0.90106,-0.0366 -1.08433,-0.21712 -0.46731,-0.46036 z m 44.86168,-7.62006 c 0.55835,-0.22012 1.22548,-0.19305 1.4825,0.0601 0.25702,0.25321 -0.19982,0.43331 -1.01518,0.40022 -0.90107,-0.0366 -1.08434,-0.21712 -0.46732,-0.46037 z m 5.41434,-0.76201 c 0.55835,-0.22012 1.22548,-0.19305 1.48251,0.0601 0.25701,0.2532 -0.19983,0.4333 -1.01519,0.40021 -0.90107,-0.0366 -1.08434,-0.21712 -0.46732,-0.46036 z m 5.41434,-0.762 c 0.55836,-0.22013 1.22548,-0.19306 1.48251,0.0601 0.25701,0.25321 -0.19983,0.43331 -1.01519,0.40022 -0.90107,-0.0366 -1.08434,-0.21713 -0.46732,-0.46037 z m 5.41434,-0.76201 c 0.55836,-0.22012 1.22548,-0.19305 1.48251,0.0601 0.25701,0.2532 -0.19983,0.4333 -1.01519,0.40021 -0.90106,-0.0366 -1.08434,-0.21712 -0.46732,-0.46037 z m 78.48296,-6.13656 c 2.03355,-0.15749 5.16613,-0.15558 6.9613,0.005 1.79516,0.15982 0.13133,0.28867 -3.69738,0.28635 -3.82871,-0.002 -5.29747,-0.13309 -3.26392,-0.29057 z M 600.25405,214.93728 c 0.55835,-0.22012 1.22548,-0.19305 1.4825,0.0601 0.25702,0.25321 -0.19982,0.43331 -1.01519,0.40022 -0.90106,-0.0366 -1.08433,-0.21713 -0.46731,-0.46037 z m 20.88388,-3.81003 c 0.55836,-0.22013 1.22548,-0.19306 1.48251,0.0601 0.25702,0.25321 -0.19983,0.43331 -1.01519,0.40022 -0.90106,-0.0366 -1.08434,-0.21713 -0.46732,-0.46037 z m 30.93909,-6.09605 c 0.55836,-0.22013 1.22548,-0.19306 1.48251,0.0601 0.25702,0.25321 -0.19983,0.43331 -1.01519,0.40022 -0.90106,-0.0366 -1.08434,-0.21713 -0.46732,-0.46037 z m 9.00363,-17.95813 -3.05752,-3.23852 3.28728,3.01217 c 1.808,1.6567 3.28728,3.11403 3.28728,3.23853 0,0.57652 -0.67358,-3.8e-4 -3.51704,-3.01218 z m -145.13562,0.43198 c 0.55835,-0.22012 1.22548,-0.19305 1.4825,0.0601 0.25702,0.2532 -0.19983,0.4333 -1.01519,0.40021 -0.90106,-0.0366 -1.08433,-0.21712 -0.46731,-0.46037 z m 149.73938,-8.05204 -1.47346,-1.71451 1.74032,1.45162 c 0.95718,0.79838 1.74033,1.56991 1.74033,1.71451 0,0.6098 -0.62249,0.1596 -2.00719,-1.45162 z m 187.44836,-4.12419 c 0.53176,-0.21139 1.40193,-0.21139 1.93369,0 0.53177,0.21139 0.0967,0.38435 -0.96684,0.38435 -1.06354,0 -1.49862,-0.17296 -0.96685,-0.38435 z m -231.89144,-27.49907 -2.66554,-2.85752 2.90054,2.626 c 2.69977,2.44422 3.25618,3.08904 2.66554,3.08904 -0.12926,0 -1.4345,-1.28588 -2.90054,-2.85752 z M 597.2065,125.73157 c -0.9621,-1.20858 -0.93475,-1.23554 0.29204,-0.2877 1.28842,0.99546 1.69815,1.62121 1.06155,1.62121 -0.16062,0 -0.76973,-0.60008 -1.35359,-1.33351 z m 259.79366,-0.72827 c 0.95717,-0.18163 2.52346,-0.18163 3.48064,0 0.95718,0.18162 0.17404,0.33023 -1.74032,0.33023 -1.91436,0 -2.6975,-0.14861 -1.74032,-0.33023 z m -7.34804,-37.325813 c 0.74447,-0.19166 1.9627,-0.19166 2.70717,0 0.74447,0.191667 0.13536,0.348488 -1.35358,0.348488 -1.48895,0 -2.09806,-0.156821 -1.35359,-0.348488 z m -15.0828,-0.741394 c 0.53176,-0.211388 1.40192,-0.211388 1.93369,0 0.53176,0.211388 0.0967,0.384348 -0.96685,0.384348 -1.06353,0 -1.49861,-0.17296 -0.96684,-0.384348 z m -10.78034,-0.777879 c 0.55837,-0.220121 1.22549,-0.193054 1.48252,0.06012 0.25703,0.253215 -0.19987,0.433308 -1.01519,0.400221 -0.9011,-0.03658 -1.08434,-0.217126 -0.46733,-0.460373 z m -8.50825,-0.762006 c 0.55837,-0.220121 1.22549,-0.193054 1.48252,0.06012 0.25703,0.253215 -0.19987,0.433307 -1.01519,0.400221 -0.9011,-0.03658 -1.08434,-0.217126 -0.46733,-0.460374 z M 466.78088,58.721252 c 0.74447,-0.191666 1.9627,-0.191666 2.70717,0 0.74447,0.191665 0.13536,0.348482 -1.35359,0.348482 -1.48894,0 -2.09805,-0.156817 -1.35358,-0.348482 z M 486.55289,47.29589 c 0.55836,-0.220121 1.22548,-0.193049 1.48251,0.06016 0.25701,0.253209 -0.19983,0.433308 -1.01519,0.400221 -0.90106,-0.03656 -1.08434,-0.217127 -0.46732,-0.46038 z m 20.88389,-17.526144 c 0.55835,-0.220121 1.22548,-0.19305 1.4825,0.06016 0.25702,0.253208 -0.19983,0.433307 -1.01519,0.400221 -0.90106,-0.03656 -1.08433,-0.217127 -0.46731,-0.460381 z m -10.87703,-0.746132 c 0.53177,-0.21139 1.40193,-0.21139 1.9337,0 0.53176,0.211391 0.0967,0.384346 -0.96685,0.384346 -1.06353,0 -1.49861,-0.172955 -0.96685,-0.384346 z m -17.77612,-0.809593 c 1.39021,-0.169594 3.4786,-0.166094 4.64087,0.0078 1.16226,0.17387 0.0248,0.312629 -2.52766,0.308352 -2.55248,-0.0043 -3.50342,-0.146535 -2.11321,-0.316128 z M 522.90632,6.9095571 c 0.55836,-0.2201217 1.22548,-0.1930495 1.48251,0.06016 0.25701,0.253209 -0.19983,0.4333082 -1.01519,0.4002209 -0.90106,-0.036557 -1.08434,-0.217127 -0.46732,-0.4603794 z M 508.21026,5.3855446 c 0.55835,-0.2201215 1.22547,-0.1930497 1.4825,0.06016 0.25702,0.2532089 -0.19983,0.4333082 -1.01519,0.4002209 -0.90106,-0.036557 -1.08434,-0.217127 -0.46731,-0.460379 z M 498.10671,4.6394132 c 0.53176,-0.2113897 1.40193,-0.2113897 1.93369,0 0.53177,0.2113904 0.0967,0.3843453 -0.96684,0.3843453 -1.06354,0 -1.49862,-0.1729549 -0.96685,-0.3843453 z"
       id="path209" />
    <path
       style="fill:#90e7e0;stroke-width:0.76772"
       d="m 868.02221,324.80572 v -61.34151 h 8.50825 8.50825 v 61.34151 61.3415 h -8.50825 -8.50825 z M 872.08296,8.3909935 c 2.44612,-0.1512211 6.44887,-0.1512211 8.89499,0 2.44612,0.1512202 0.44475,0.2749462 -4.44749,0.2749462 -4.89225,0 -6.89362,-0.123726 -4.4475,-0.2749462 z"
       id="path207" />
    <path
       style="fill:#d3e388;stroke-width:0.76772"
       d="m 191.61635,356.08644 c -23.53806,-2.53672 -23.82687,-2.66784 -9.28173,-4.21369 10.37602,-1.10277 25.86596,-3.04408 66.90578,-8.38513 48.99619,-6.37651 48.24703,-6.30405 55.75988,-5.3942 8.06314,0.97649 47.59,4.61724 50.14206,4.61851 4.66369,0.002 0.18984,0.72104 -11.53771,1.85353 -21.14525,2.04193 -58.23184,6.37886 -88.73241,10.37643 -16.49993,2.16258 -31.3569,3.72804 -34.80647,3.66753 -3.31021,-0.0581 -16.11244,-1.19341 -28.4494,-2.52298 z M 30.539707,355.10386 c 2.446122,-0.15122 6.448867,-0.15122 8.894989,0 2.446122,0.15122 0.444749,0.27494 -4.447494,0.27494 -4.892244,0 -6.893616,-0.12372 -4.447495,-0.27494 z m 66.712414,-6.86721 -3.867387,-0.29758 11.215416,-3.66648 c 12.71362,-4.15625 24.9153,-9.26047 40.48001,-16.93357 9.53423,-4.70021 11.11679,-5.25061 14.51285,-5.0474 2.09645,0.12544 3.85801,0.57098 3.91461,0.99008 0.14164,1.04909 -31.55912,16.75188 -43.5738,21.58403 -10.2882,4.13778 -11.116,4.26081 -22.681699,3.37092 z m 67.739809,-29.81372 c -1.65941,-0.45696 -1.04165,-0.98805 5.41435,-4.65471 17.66713,-10.034 40.97181,-25.05149 90.04954,-58.02781 44.04955,-29.59777 78.29549,-49.2957 105.67361,-60.78244 7.28114,-3.05486 7.63222,-3.12162 16.24302,-3.08826 l 8.80103,0.0341 -5.41434,1.75163 c -14.28266,4.62069 -41.4535,16.94661 -60.3222,27.36487 -12.88478,7.11427 -38.74296,23.3452 -62.77856,39.4055 -43.9881,29.39228 -68.64013,45.47826 -79.83744,52.09564 -11.2306,6.63705 -13.01412,7.2274 -17.82901,5.90149 z"
       id="path205" />
    <path
       style="fill:#aaf09b;stroke-width:0.76772"
       d="m 44.075559,316.29998 c 0.531766,-0.21138 1.401928,-0.21138 1.933694,0 0.531765,0.21139 0.09668,0.38436 -0.966847,0.38436 -1.063531,0 -1.498612,-0.17297 -0.966847,-0.38436 z M 175.76006,144.1333 c -29.57605,-4.74745 -69.61484,-8.84315 -101.325518,-10.36496 -19.503809,-0.93598 -20.122303,-1.01073 -12.762375,-1.54257 12.809301,-0.9256 33.109214,-4.29538 47.912763,-7.95349 33.75093,-8.34022 65.47956,-20.52464 122.63897,-47.095819 8.72096,-4.054025 24.51068,-11.350699 35.08829,-16.214819 l 19.23199,-8.843855 21.37556,3.197577 c 24.9731,3.735733 46.73332,6.478304 66.67527,8.40348 10.04295,0.969537 13.57205,1.54313 11.9376,1.94025 -40.78652,9.909854 -72.83895,22.407359 -149.66784,58.356706 -21.59039,10.10245 -48.51074,22.12438 -49.28321,22.00859 -0.33334,-0.05 -5.65302,-0.90095 -11.8215,-1.89109 z M 30.539707,22.869113 c 2.446122,-0.151221 6.448867,-0.151221 8.894989,0 2.446122,0.15122 0.444749,0.274946 -4.447494,0.274946 -4.892244,0 -6.893616,-0.123726 -4.447495,-0.274946 z"
       id="path203" />
    <path
       style="fill:#b5a7cb;stroke-width:0.76772"
       d="m 863.18797,324.64894 c 0.95718,-0.18162 2.52347,-0.18162 3.48065,0 0.95718,0.18163 0.17403,0.33024 -1.74032,0.33024 -1.91436,0 -2.6975,-0.14861 -1.74033,-0.33024 z m -6.91295,-0.74476 c 0.55837,-0.22013 1.2255,-0.19306 1.48252,0.0601 0.25703,0.25321 -0.19986,0.43331 -1.01518,0.40022 -0.90111,-0.0366 -1.08434,-0.21713 -0.46734,-0.46037 z m 8.45991,-11.41423 c 0.53176,-0.21138 1.40193,-0.21138 1.93369,0 0.53177,0.21139 0.0967,0.38436 -0.96685,0.38436 -1.06353,0 -1.49861,-0.17297 -0.96684,-0.38436 z m -182.95253,-56.96181 -15.7787,-7.7288 15.28363,-12.68121 15.28362,-12.68122 13.57228,12.70308 c 7.46476,6.9867 15.66511,14.6486 18.223,17.02643 4.45415,4.14062 4.5697,4.34069 2.73377,4.73375 -1.05433,0.22572 -9.03189,1.74834 -17.72793,3.38358 l -15.81097,2.97319 z m 53.18714,-9.81774 c -10.09931,-8.86372 -33.66848,-30.91241 -30.53777,-28.56775 3.98878,2.98728 45.23566,20.46642 65.35262,27.6944 8.57608,3.08137 10.75644,4.12298 9.28172,4.43415 -1.06011,0.22367 -8.01861,1.29689 -15.46333,2.38493 -7.44472,1.08804 -14.5866,2.25447 -15.87087,2.59207 -2.19801,0.5778 -2.94681,0.0769 -12.76237,-8.5378 z m -79.46974,-1.99245 c 0.26076,-0.96697 -51.06922,-25.69686 -57.31264,-27.61222 -0.57842,-0.17745 1.684,-0.7621 5.02761,-1.29922 3.34361,-0.53712 20.00188,-3.71968 37.01838,-7.07236 l 30.93909,-6.09578 3.30797,1.57568 c 1.81939,0.86662 3.55284,1.57568 3.85211,1.57568 0.29928,0 -2.58156,-3.19773 -6.40187,-7.10606 -3.82031,-3.90833 -1.46746,-1.59374 5.22854,5.14354 6.69601,6.73728 12.17803,12.43831 12.18226,12.66896 0.004,0.23065 -3.03786,2.98784 -6.76022,6.12707 -19.28246,16.26178 -27.2644,22.77399 -27.08123,22.09471 z m -82.94591,-37.91 c -11.19997,-4.50313 -31.4998,-10.93044 -45.13345,-14.29009 l -13.03414,-3.21193 12.6474,-2.52572 c 15.34063,-3.06355 35.46439,-8.38923 55.2021,-14.609 l 14.70949,-4.63529 16.2296,7.39021 c 25.33844,11.53795 26.66316,12.16617 26.66747,12.64645 0.006,0.70679 -59.98231,22.4326 -60.61589,21.95297 -0.0539,-0.0409 -3.05657,-1.26373 -6.67258,-2.7176 z m 77.72594,-41.59507 -13.14058,-13.1446 13.34248,12.9457 c 12.39592,12.0273 13.69213,13.34351 13.14058,13.34351 -0.11105,0 -6.11517,-5.91507 -13.34248,-13.14461 z m 206.33359,11.09533 c 0.74447,-0.19166 1.9627,-0.19166 2.70717,0 0.74447,0.19166 0.13536,0.34848 -1.35359,0.34848 -1.48894,0 -2.09806,-0.15682 -1.35358,-0.34848 z m -215.62754,-8.80931 -5.39359,-5.52454 5.60771,5.31361 c 3.08424,2.92249 5.60771,5.40853 5.60771,5.52455 0,0.55894 -0.81225,-0.18242 -5.82183,-5.31362 z m 55.71111,-17.77564 c -16.59108,-1.41514 -32.95013,-2.84398 -36.35343,-3.1752 l -6.18781,-0.60223 12.24733,-4.74934 c 7.32567,-2.84078 13.41516,-4.74934 15.15341,-4.74934 1.59833,0 11.18666,0.69933 21.3074,1.55407 10.12074,0.85473 18.7906,1.41741 19.26633,1.25038 0.47576,-0.16703 2.85325,0.67511 5.28333,1.87143 2.4301,1.19631 7.12897,3.23521 10.44195,4.53089 3.31298,1.29566 6.1327,2.46202 6.26603,2.59188 0.59972,0.58408 -12.1361,4.19538 -14.55439,4.12696 -1.48749,-0.0421 -16.27906,-1.23436 -32.87015,-2.6495 z m -65.79422,-3.56053 -2.27177,-2.47652 2.5138,2.23809 c 1.38259,1.23094 2.5138,2.34538 2.5138,2.47652 0,0.58868 -0.63822,0.0704 -2.75583,-2.23809 z m -13.94742,-1.52401 -1.47347,-1.71452 1.74033,1.45162 c 1.63547,1.36416 2.09244,1.97741 1.47346,1.97741 -0.14678,0 -0.92992,-0.77153 -1.74032,-1.71451 z m 100.23879,-7.81057 c -1.06353,-0.59895 -1.58563,-1.089 -1.16021,-1.089 0.42541,0 1.64363,0.49005 2.70717,1.089 1.06353,0.59896 1.58562,1.08901 1.16021,1.08901 -0.42541,0 -1.64364,-0.49005 -2.70717,-1.08901 z m 36.35343,-2.66702 c -0.63812,-0.40626 -0.81215,-0.73866 -0.38674,-0.73866 0.42542,0 1.29558,0.3324 1.9337,0.73866 0.63812,0.40627 0.81215,0.73867 0.38674,0.73867 -0.42542,0 -1.29558,-0.3324 -1.9337,-0.73867 z m -50.27602,-3.81003 c -0.63812,-0.40627 -0.81215,-0.73866 -0.38674,-0.73866 0.42541,0 1.29558,0.33239 1.9337,0.73866 0.63811,0.40627 0.81215,0.73867 0.38673,0.73867 -0.42541,0 -1.29557,-0.3324 -1.93369,-0.73867 z m 37.12691,-1.52401 c -0.63812,-0.40627 -0.81215,-0.73867 -0.38674,-0.73867 0.42541,0 1.29557,0.3324 1.93369,0.73867 0.63812,0.40627 0.81215,0.73866 0.38674,0.73866 -0.42541,0 -1.29557,-0.33239 -1.93369,-0.73866 z m -130.7762,-2.85753 -1.87515,-2.09552 2.12706,1.84735 c 1.16989,1.01605 2.12706,1.95903 2.12706,2.09551 0,0.59763 -0.62636,0.11125 -2.37897,-1.84734 z m 119.94752,-1.71451 c -0.63812,-0.40627 -0.81215,-0.73866 -0.38674,-0.73866 0.42541,0 1.29557,0.33239 1.93369,0.73866 0.63812,0.40627 0.81215,0.73867 0.38674,0.73867 -0.42541,0 -1.29557,-0.3324 -1.93369,-0.73867 z m -6.9613,-3.04803 c -0.63812,-0.40626 -0.81215,-0.73866 -0.38674,-0.73866 0.42542,0 1.29558,0.3324 1.9337,0.73866 0.63812,0.40628 0.81215,0.73867 0.38674,0.73867 -0.42542,0 -1.29558,-0.33239 -1.9337,-0.73867 z m -122.66963,-4.00053 -1.47347,-1.71451 1.74033,1.45161 c 0.95717,0.79839 1.74032,1.56992 1.74032,1.71452 0,0.6098 -0.62248,0.1596 -2.00718,-1.45162 z M 857.02607,87.640095 c 2.24772,-0.15442 5.72837,-0.152797 7.73477,0.0038 2.00648,0.156402 0.16746,0.282735 -4.08667,0.280754 -4.25412,-0.0023 -5.89575,-0.129945 -3.6481,-0.284358 z m -19.36285,-0.704002 c 0.53177,-0.211388 1.40193,-0.211388 1.9337,0 0.53176,0.211388 0.0967,0.384348 -0.96685,0.384348 -1.06353,0 -1.49861,-0.17296 -0.96685,-0.384348 z m -11.60215,-0.762006 c 0.53176,-0.211388 1.40192,-0.211388 1.93369,0 0.53176,0.211388 0.0967,0.384348 -0.96685,0.384348 -1.06353,0 -1.49861,-0.17296 -0.96684,-0.384348 z m -8.45991,-0.777879 c 0.55837,-0.220121 1.2255,-0.193054 1.48252,0.06012 0.25703,0.253215 -0.19986,0.433307 -1.01519,0.400221 -0.9011,-0.03658 -1.08434,-0.217126 -0.46733,-0.460374 z M 471.08335,58.725985 c 0.55835,-0.220121 1.22548,-0.19305 1.4825,0.06016 0.25702,0.253209 -0.19983,0.433308 -1.01519,0.400221 -0.90106,-0.03656 -1.08434,-0.217126 -0.46731,-0.460379 z m 6.69871,-11.704843 c -0.25145,-0.4008 0.25951,-0.728727 1.13543,-0.728727 1.86762,0 2.05603,0.42376 0.45717,1.028204 -0.6245,0.236086 -1.34118,0.101322 -1.5926,-0.299477 z m -5.19108,-0.505658 c 0.96214,-0.182267 2.3544,-0.175347 3.09391,0.01537 0.73951,0.190725 -0.0478,0.339852 -1.74935,0.331395 -1.70165,-0.0085 -2.3067,-0.164506 -1.34456,-0.346772 z m 52.63577,-15.221725 c 0.55836,-0.220122 1.22548,-0.193051 1.48251,0.06016 0.25702,0.253208 -0.19983,0.433307 -1.01519,0.400221 -0.90106,-0.03656 -1.08434,-0.217127 -0.46732,-0.460379 z m -7.73477,-0.762006 c 0.55836,-0.220122 1.22548,-0.193051 1.48251,0.06016 0.25701,0.253208 -0.19983,0.433307 -1.01519,0.400221 -0.90106,-0.03656 -1.08434,-0.217127 -0.46732,-0.460381 z m -7.73477,-0.762007 c 0.55835,-0.220121 1.22548,-0.19305 1.4825,0.06016 0.25702,0.253208 -0.19982,0.433307 -1.01518,0.400221 -0.90107,-0.03656 -1.08434,-0.217127 -0.46732,-0.460381 z m -25.37972,-1.003475 c 0.63812,-0.406269 1.85634,-0.738669 2.70717,-0.738669 1.28098,0 1.34747,0.127 0.38674,0.738669 -0.63812,0.406268 -1.85635,0.738669 -2.70717,0.738669 -1.28099,0 -1.34748,-0.127001 -0.38674,-0.738669 z m 15.32452,0.241469 c 0.55835,-0.220122 1.22547,-0.193051 1.4825,0.06016 0.25702,0.253208 -0.19983,0.433308 -1.01519,0.400221 -0.90106,-0.03656 -1.08434,-0.217127 -0.46731,-0.460379 z m -27.11103,-0.780407 c 0.96214,-0.182266 2.3544,-0.175347 3.09391,0.01537 0.73951,0.190724 -0.0478,0.339852 -1.74935,0.331394 -1.70165,-0.0085 -2.3067,-0.164505 -1.34456,-0.346772 z M 514.39807,6.1475508 c 0.55836,-0.2201217 1.22548,-0.1930495 1.48251,0.06016 0.25701,0.253209 -0.19983,0.4333082 -1.01519,0.400221 -0.90106,-0.036557 -1.08434,-0.217127 -0.46732,-0.4603794 z M 495.0128,4.6394132 c 0.53177,-0.2113897 1.40193,-0.2113897 1.93369,0 0.53177,0.2113904 0.0967,0.3843453 -0.96684,0.3843453 -1.06354,0 -1.49862,-0.1729549 -0.96685,-0.3843453 z"
       id="path201" />
    <path
       style="fill:#d68bb5;stroke-width:0.76772"
       d="m 451.33958,346.72095 c 2.46165,-0.15168 6.29036,-0.15027 8.50825,0.003 2.21787,0.1534 0.2038,0.2775 -4.47574,0.27578 -4.67954,-0.002 -6.49417,-0.12723 -4.03251,-0.27891 z m 118.12041,-2.81507 -9.66847,-0.86458 6.20689,-2.00256 c 17.68998,-5.70742 42.88859,-15.37319 67.66019,-25.95332 l 15.0828,-6.44198 9.66847,1.02549 c 5.31766,0.56401 10.15604,1.11439 10.75195,1.22307 1.60243,0.29224 -38.8496,17.7684 -65.04238,28.09972 -17.10349,6.7462 -15.96975,6.58546 -34.65945,4.91416 z m -51.43624,-3.51194 c -4.67954,-0.29437 -8.68228,-0.59596 -8.89499,-0.67021 -0.21271,-0.0742 2.81131,-1.27921 6.72004,-2.67771 16.36019,-5.85347 36.9988,-16.40584 55.37628,-28.31348 10.74104,-6.95964 11.13458,-7.06758 21.02618,-5.76774 l 3.84108,0.50474 -3.06761,2.36663 c -10.61591,8.1901 -33.61659,22.53644 -49.16207,30.66414 -9.96857,5.2119 -8.47079,4.9862 -25.83891,3.89363 z m 214.76995,-61.67601 -6.44455,-2.88556 9.15172,-3.57857 c 5.03344,-1.96822 9.52571,-3.73593 9.98281,-3.92827 0.4571,-0.19234 3.09475,1.47827 5.86144,3.71244 l 5.03033,4.06213 -8.18187,2.82661 c -4.50002,1.55463 -8.35589,2.79289 -8.5686,2.75168 -0.2127,-0.0412 -3.28678,-1.37341 -6.83128,-2.96046 z m -120.79247,1.29317 c 0,-0.17597 2.17541,-1.99469 4.83424,-4.0416 5.61555,-4.32317 35.624,-29.03812 53.5633,-44.11471 6.8066,-5.72042 13.97169,-11.73462 15.92244,-13.3649 l 3.54681,-2.96414 3.37901,3.3919 c 2.07695,2.08486 3.09464,3.65212 2.64101,4.06719 -0.94326,0.86309 -10.38444,8.67714 -39.97268,33.08364 -13.07082,10.78174 -24.55696,19.93018 -25.52475,20.32985 -0.96779,0.39967 -4.8922,1.26944 -8.72091,1.93281 -3.82871,0.66339 -7.57041,1.38475 -8.31488,1.60303 -0.74447,0.21828 -1.35359,0.2529 -1.35359,0.077 z m 151.01429,-11.23296 -5.61485,-4.48513 11.80267,-3.75254 c 6.49147,-2.06389 14.93526,-4.53541 18.76397,-5.49224 l 6.9613,-1.7397 9.66846,2.37369 c 5.31766,1.30554 11.21712,2.61662 13.10998,2.91351 3.25123,0.50997 2.84485,0.65742 -7.34804,2.66621 -17.71471,3.49117 -42.39721,10.2806 -41.65801,11.4589 0.68135,1.08611 0.14026,0.71088 -5.68548,-3.9427 z m -63.22349,-55.60521 c -1.82938,-1.84566 -2.72985,-3.30475 -2.28404,-3.70097 0.40478,-0.35975 5.4891,-4.43001 11.29851,-9.04501 l 10.56253,-8.39094 8.8465,-1.62421 c 4.86556,-0.89332 9.46881,-1.62421 10.22943,-1.62421 0.76061,0 -3.79668,3.85905 -10.12731,8.57567 -6.33064,4.71662 -14.34403,10.88887 -17.80753,13.71612 -3.46352,2.82724 -6.61248,5.14044 -6.9977,5.14044 -0.38522,0 -2.05939,-1.3711 -3.72039,-3.04689 z m 100.02232,-65.34862 c -3.96244,-1.00892 -7.36884,-1.99631 -7.56963,-2.19418 -1.35503,-1.33489 3.31551,-1.75539 14.67278,-1.32104 7.01931,0.26846 12.81567,0.52747 12.88087,0.57562 0.065,0.0482 -2.78351,1.14198 -6.33044,2.43077 l -6.44902,2.34326 z m 58.36072,-84.533814 c 0.75259,-0.193201 1.79679,-0.180495 2.32043,0.02823 0.52372,0.20873 -0.092,0.366805 -1.36828,0.351275 -1.27624,-0.01553 -1.70467,-0.186308 -0.95215,-0.37951 z m -18.91655,-0.75448 c 0.55837,-0.220121 1.2255,-0.19305 1.48252,0.06016 0.25703,0.253209 -0.19986,0.433309 -1.01518,0.400221 -0.90111,-0.03656 -1.08434,-0.217126 -0.46734,-0.460378 z"
       id="path199" />
    <path
       style="fill:#e3d254;stroke-width:0.76772"
       d="m 26.478952,370.52609 v -14.85912 h 8.50825 8.508249 v 14.85912 14.85912 h -8.508249 -8.50825 z"
       id="path197" />
    <path
       style="fill:#8fec7c;stroke-width:0.76772"
       d="M 26.478952,184.97756 V 23.432227 h 8.50825 8.508249 V 184.97756 346.52289 h -8.508249 -8.50825 z"
       id="path195" />
    <path
       style="fill:#f6a25b;stroke-width:0.76772"
       d="M 447.25058,125.16006 V 67.628591 h 8.12151 8.12151 v 57.531469 57.53148 h -8.12151 -8.12151 z"
       id="path193" />
    <path
       style="fill:#7e85e8;stroke-width:0.76772"
       d="m 447.25058,265.75023 v -73.15261 h 8.12151 8.12151 v 73.15261 73.1526 h -8.12151 -8.12151 z m 245.54264,-58.86498 -3.05752,-3.23853 3.28728,3.01217 c 3.05714,2.80129 3.64271,3.46488 3.05751,3.46488 -0.12636,0 -1.60564,-1.45734 -3.28727,-3.23852 z m -40.66983,-29.33726 c -0.9621,-1.20858 -0.93475,-1.23553 0.29203,-0.28769 1.28842,0.99546 1.69815,1.62121 1.06155,1.62121 -0.16061,0 -0.76973,-0.60008 -1.35358,-1.33352 z m -18.15154,-17.90714 -1.47347,-1.71452 1.74033,1.45162 c 1.63547,1.36416 2.09244,1.97741 1.47346,1.97741 -0.14678,0 -0.92992,-0.77153 -1.74032,-1.71451 z M 26.478952,11.621129 V 8.9541066 h 8.50825 8.508249 v 2.6670224 2.667022 h -8.508249 -8.50825 z"
       id="path191" />
    <path
       style="fill:#9e9da2;stroke-width:0.76772"
       d="m 855.64657,323.90762 c -13.47815,-1.36016 -31.77816,-7.01684 -47.56885,-14.70393 -14.01719,-6.82369 -15.75024,-8.07805 -8.50825,-6.15804 17.2019,4.56056 38.76328,8.19983 52.20971,8.81229 4.46684,0.20346 9.94886,0.56713 12.18227,0.80814 l 4.06076,0.4382 v 5.66022 5.66021 l -4.83424,-0.12195 c -2.65882,-0.067 -6.05246,-0.24489 -7.5414,-0.39514 z M 728.73455,252.52478 c -2.75205,-2.57493 -10.99932,-10.28278 -18.32727,-17.12854 -7.32796,-6.84575 -13.31727,-12.67509 -13.30961,-12.9541 0.008,-0.279 1.40824,-1.64794 3.11237,-3.04208 l 3.09843,-2.53482 8.29642,7.71246 c 4.56303,4.24186 14.00071,12.75493 20.97261,18.91795 l 12.67618,11.20549 -4.62497,0.82445 c -2.54373,0.45345 -5.1347,1.01716 -5.7577,1.25267 -0.70241,0.26555 -3.03368,-1.35036 -6.13646,-4.25348 z m -50.40656,-48.68756 c -13.99155,-14.41831 -45.63212,-45.88179 -55.57809,-55.26703 -7.37248,-6.95684 -7.4072,-7.00673 -4.64086,-6.66884 1.53295,0.18725 4.51453,0.5296 6.62575,0.7608 l 3.83856,0.42035 -3.06509,-3.1728 c -1.6858,-1.74504 11.92203,11.71046 30.23959,29.90111 18.31757,18.19064 34.90931,34.79412 36.87054,36.89661 l 3.56589,3.8227 -2.97891,2.46385 c -1.63839,1.35512 -3.1188,2.46385 -3.28981,2.46385 -0.171,0 -5.38541,-5.22927 -11.58757,-11.6206 z m 173.83793,-28.81437 c -16.12313,-1.11143 -36.80328,-4.76526 -54.34358,-9.60161 -5.4203,-1.49452 -10.63818,-2.88925 -11.59535,-3.09942 -2.7852,-0.61154 -2.07875,-1.45792 3.48064,-4.17023 l 5.22098,-2.54718 12.37563,0.54234 c 12.89248,0.56499 42.26094,1.30831 53.95004,1.36548 l 6.76793,0.0332 v 9.14407 9.14408 l -3.67402,-0.11206 c -2.02071,-0.0616 -7.50273,-0.37601 -12.18227,-0.69857 z m -87.01619,-19.80111 -3.48065,-1.40355 3.86739,0.0345 c 2.12706,0.019 4.73755,0.27853 5.80108,0.57676 l 1.93369,0.54225 -1.68947,0.90581 c -2.05012,1.09915 -2.09012,1.09508 -6.43204,-0.65578 z m -25.54542,-9.76192 C 719.88346,137.16623 638.63557,98.102135 641.139,98.117556 c 2.08333,0.01286 23.03856,-4.740584 23.26754,-5.277932 0.10759,-0.252462 7.24292,2.984179 15.85629,7.192546 37.84373,18.48985 61.98784,29.11106 86.04712,37.85293 l 12.37563,4.49665 -6.9405,-0.43678 c -6.43418,-0.40493 -7.6317,-0.23314 -16.41489,2.35477 -5.21092,1.53535 -9.2895,3.08629 -9.0635,3.44653 0.22598,0.36024 0.30332,0.61723 0.17187,0.57108 -0.13146,-0.0462 -3.20687,-1.33204 -6.83425,-2.85753 z M 605.71475,133.35163 c -0.9621,-1.20858 -0.93475,-1.23554 0.29204,-0.28769 1.28842,0.99545 1.69815,1.6212 1.06155,1.6212 -0.16062,0 -0.76973,-0.60008 -1.35359,-1.33351 z m -1.0652,-4.69624 c -3.56458,-0.41189 -4.65146,-1.10808 -13.72923,-8.79408 -5.42199,-4.59073 -9.85818,-8.56056 -9.85818,-8.82185 0,-0.2613 2.30402,-0.89333 5.12004,-1.4045 5.72644,-1.03948 4.76349,-1.44932 12.28814,5.22983 2.12979,1.89047 6.60288,5.92326 9.9402,8.96176 l 6.06786,5.52455 -2.97889,-0.12421 c -1.6384,-0.0683 -4.72087,-0.32548 -6.84994,-0.5715 z M 837.08312,86.924495 c -26.05923,-1.871754 -47.81397,-4.526149 -75.69187,-9.235516 l -12.65347,-2.137526 23.48215,-3.583709 c 27.27931,-4.163202 37.52842,-5.415634 54.0345,-6.602965 6.5939,-0.474317 15.81761,-1.137636 20.49715,-1.474042 4.67954,-0.336404 11.37979,-0.453957 14.88944,-0.261227 l 6.38119,0.35042 v 11.730416 11.730409 l -13.72922,-0.133131 c -7.55108,-0.07323 -15.29552,-0.245625 -17.20987,-0.383129 z M 499.02725,63.966607 c -7.8151,-2.436467 -18.98384,-4.527463 -27.60899,-5.168919 l -7.15118,-0.531837 V 31.21089 4.1559278 l 19.5303,0.4493909 c 35.76967,0.8230582 79.67707,6.9453743 135.16515,18.8470253 21.71733,4.658152 55.13547,12.133327 55.39774,12.391702 0.2038,0.200779 -35.9152,8.277839 -46.11601,10.312626 -3.1906,0.636437 -5.90868,1.41679 -6.04018,1.734116 -0.1315,0.317326 -1.1757,0.269813 -2.32044,-0.105587 -2.86244,-0.9387 -33.26477,-6.993218 -49.26344,-9.810646 -33.14306,-5.836622 -73.82378,-10.135709 -93.20401,-9.84968 l -6.57455,0.09703 8.89498,0.62508 c 28.35353,1.992496 61.1575,9.868123 94.24993,22.627676 l 9.55417,3.68383 -14.24747,2.425017 c -7.8361,1.333761 -14.98648,2.425019 -15.8897,2.425019 -0.90323,0 -1.81853,0.280999 -2.03398,0.624443 -0.21545,0.343445 -3.4556,-0.366138 -7.20032,-1.576849 -18.34974,-5.932692 -47.78209,-11.526371 -64.43263,-12.245553 -4.89224,-0.21131 -7.67676,-0.230935 -6.18781,-0.04361 16.56209,2.083679 35.14744,7.615892 49.34376,14.687922 l 4.36636,2.175141 -4.61759,0.510671 C 507.18778,65.84975 505.01619,65.83374 499.02725,63.96661 Z m 337.91084,-1.430591 c 0.55837,-0.220121 1.2255,-0.19305 1.48252,0.06016 0.25703,0.253209 -0.19986,0.433309 -1.01519,0.400221 -0.9011,-0.03656 -1.08433,-0.217126 -0.46733,-0.460378 z m -20.11041,-1.524013 c 0.55837,-0.22012 1.2255,-0.193049 1.48252,0.06016 0.25703,0.253209 -0.19986,0.433308 -1.01518,0.400221 -0.90111,-0.03656 -1.08434,-0.217126 -0.46734,-0.460379 z m -365.4881,-2.329425 c 2.46165,-0.151678 6.29036,-0.150271 8.50825,0.0031 2.21787,0.153397 0.2038,0.277496 -4.47574,0.275777 -4.67954,-0.0017 -6.49417,-0.127225 -4.03251,-0.278902 z M 446.67215,7.0490909 c 0.009,-1.6764136 0.167,-2.2724953 0.352,-1.3246269 0.18501,0.9478701 0.17799,2.3194814 -0.0157,3.048026 -0.19359,0.7285447 -0.34497,-0.046987 -0.33638,-1.7233991 z"
       id="path189" />
    <path
       style="fill:#c27793;stroke-width:0.76772"
       d="m 751.30185,272.02166 -5.37067,-4.28641 5.49279,-1.71569 c 3.02105,-0.94362 5.86595,-1.50167 6.32201,-1.24011 3.03661,1.74159 9.66209,7.42178 9.16681,7.85896 -0.33157,0.29266 -2.77127,1.23806 -5.42156,2.10088 l -4.81871,1.56877 z m -58.01565,-53.0647 -3.27451,-3.287 3.30179,-2.7843 3.30179,-2.78429 3.31444,3.20464 c 3.18252,3.07709 3.26112,3.26277 1.97456,4.66547 -0.73694,0.80346 -2.24072,2.09346 -3.34173,2.86666 l -2.00184,1.40582 z m 83.27232,-59.72977 c -3.29695,-1.09538 -5.99445,-2.1995 -5.99445,-2.45362 0,-0.25411 4.51512,-2.93555 10.0336,-5.95878 l 10.03359,-5.49674 6.94101,1.92261 c 3.81758,1.05743 7.482,1.9226 8.14309,1.9226 0.66117,0 1.20214,0.3429 1.20214,0.76201 0,0.4191 -0.43013,0.762 -0.95578,0.762 -0.52566,0 -5.88647,2.40032 -11.91287,5.33405 -6.02645,2.93372 -11.07838,5.30331 -11.22653,5.26576 -0.14814,-0.0375 -2.96685,-0.9645 -6.2638,-2.05989 z"
       id="path187" />
    <path
       style="fill:#ed5c66;stroke-width:0.76772"
       d="M 447.25058,368.24007 V 347.2849 h 8.12151 8.12151 v 20.95517 20.95518 h -8.12151 -8.12151 z M 868.02221,200.21769 v -54.86446 h 8.50825 8.50825 v 54.86446 54.86445 h -8.50825 -8.50825 z"
       id="path185" />
    <path
       style="fill:#9d8879;stroke-width:0.76772"
       d="m 846.75158,311.71959 c -11.49062,-1.40968 -25.45792,-3.64722 -32.48604,-5.20421 -19.07202,-4.22515 -21.11485,-4.94761 -29.759,-10.52462 -8.65786,-5.58583 -27.06068,-18.91059 -27.08003,-19.60758 -0.006,-0.22888 2.25917,-1.14346 5.03452,-2.03241 l 5.04607,-1.61627 12.93727,8.5237 c 24.58778,16.19958 48.00999,26.38896 68.41084,29.76076 5.77671,0.95475 4.21297,1.47556 -2.10363,0.70063 z M 739.98299,262.1732 c -6.59643,-5.69033 -6.58445,-5.75403 1.25688,-6.68613 l 4.18619,-0.4976 5.70133,4.60689 c 3.61613,2.92197 5.31348,4.7458 4.64086,4.98668 -4.846,1.73546 -7.9892,2.6912 -8.85074,2.6912 -0.56167,0 -3.68221,-2.29547 -6.93452,-5.10104 z m 84.72449,-105.42976 c -7.87013,-0.29016 -17.52893,-0.57134 -21.46399,-0.62485 -3.93507,-0.0535 -7.15467,-0.39263 -7.15467,-0.75363 0,-0.361 2.52347,-1.69435 5.60771,-2.96299 l 5.60771,-2.30665 8.50825,1.7937 c 7.54837,1.59135 25.42227,4.38541 32.87278,5.13871 4.34656,0.43946 -8.46895,0.28752 -23.97779,-0.28429 z m -59.94449,-3.00524 c -4.80937,-0.47576 -16.64277,-4.3559 -18.40059,-6.03351 -0.33583,-0.32051 3.71015,-1.85583 8.99108,-3.41182 l 9.60169,-2.82907 8.7989,0.76717 c 4.83939,0.42194 10.47675,1.33754 12.52744,2.03465 l 3.72854,1.26748 -2.18159,1.29091 c -7.52587,4.45325 -14.22742,7.6579 -15.81266,7.56155 -1.01116,-0.0615 -4.27492,-0.35277 -7.25281,-0.64736 z m -144.03272,-11.45608 -5.5803,-0.57814 -6.93804,-6.35336 c -3.81592,-3.49435 -6.81152,-6.47801 -6.65687,-6.63035 0.15463,-0.15235 3.22213,-0.0356 6.81665,0.25933 l 6.53549,0.53633 6.84577,6.77564 c 3.76518,3.72661 6.33093,6.72908 5.70168,6.67218 -0.62924,-0.057 -3.65522,-0.36364 -6.72438,-0.68163 z M 570.79792,103.62908 C 552.77735,89.809504 532.30583,77.385617 515.87252,70.295613 l -10.59713,-4.572037 11.22956,-0.997853 11.22955,-0.997853 7.13352,3.995127 c 9.91691,5.553966 21.66115,13.334561 33.04501,21.892424 10.51707,7.906246 23.38527,18.475239 22.98024,18.874259 -0.13931,0.13724 -2.58939,0.73196 -5.4446,1.32159 l -5.19131,1.07205 z m 57.0596,-10.899023 c -22.27593,-10.799004 -47.41861,-21.356389 -68.066,-28.580836 -5.10495,-1.786203 -8.75963,-3.412528 -8.12151,-3.614054 0.63812,-0.201525 8.13694,-1.493568 16.66404,-2.871206 l 15.50384,-2.504795 10.40765,4.441916 c 22.55734,9.627315 70.35215,32.142549 70.35215,33.141558 0,0.638475 -21.49333,5.394699 -23.9778,5.306011 -1.06353,-0.03791 -6.8066,-2.431333 -12.76237,-5.318594 z m 98.61835,-21.59816 c -10.84802,-2.195134 -38.78022,-8.252489 -62.07155,-13.460788 -37.0961,-8.295256 -46.08026,-10.616688 -41.08761,-10.616688 0.69317,0 7.56744,-1.399405 15.27618,-3.109789 7.70874,-1.710385 19.10731,-4.223003 25.33016,-5.583596 l 11.31426,-2.473803 13.05028,2.92115 c 64.85435,14.516883 124.92989,23.767621 158.07725,24.341526 l 6.57456,0.113831 -6.9613,0.585666 c -3.82871,0.322117 -12.53033,0.986405 -19.33693,1.476195 -16.15817,1.162713 -32.59015,3.175338 -56.32141,6.898384 -10.60384,1.663566 -20.36884,2.996406 -21.69997,2.961865 -1.33114,-0.03453 -11.2959,-1.858816 -22.14392,-4.053953 z M 446.82275,34.100315 c 0,-13.620863 0.10488,-19.193034 0.23308,-12.382602 0.12818,6.810431 0.12818,17.954772 0,24.765203 -0.1282,6.810432 -0.23308,1.238261 -0.23308,-12.382601 z m 17.01999,-2.667022 c -2.4e-4,-15.087725 0.10307,-21.367978 0.22959,-13.956119 0.12652,7.411859 0.12672,19.756361 4.5e-4,27.432226 -0.12627,7.675866 -0.22978,1.611617 -0.23004,-13.476107 z"
       id="path183" />
    <path
       style="fill:#669900;stroke-width:0.76772"
       d="M 868.02221,72.962635 V 8.9541066 h 8.50825 8.50825 V 72.962635 136.97116 h -8.50825 -8.50825 z"
       id="path181" />
    <path
       style="fill:#808080;stroke-width:0.76772"
       d="M 447.25058,31.433293 V 4.3820692 h 8.12151 8.12151 V 31.433293 58.484516 h -8.12151 -8.12151 z"
       id="path179" />
    <rect
       style="fill:#003399;stroke-width:0.90485"
       id="rect341"
       width="17.0165"
       height="123.3698"
       x="868.414"
       y="263.54822" />
    <rect
       style="fill:#ffcc00;stroke-width:0.85219"
       id="rect341-1"
       width="17.0165"
       height="109.42809"
       x="867.9342"
       y="145.43254" />
    <text
       xml:space="preserve"
       style="font-size:14.6667px;line-height:1.25;font-family:sans-serif;stroke-width:0.95965"
       x="28.917692"
       y="17.635759"
       id="text419"
       transform="scale(1.0074987,0.9925571)"><tspan
         sodipodi:role="line"
         id="tspan417"
         x="28.917692"
         y="17.635759"
         style="font-size:14.6667px;stroke-width:0.95965">Categorical (2%)</tspan></text>
    <text
       xml:space="preserve"
       style="font-size:14.6667px;line-height:1.25;font-family:sans-serif;stroke-width:0.95965"
       x="28.917692"
       y="199.36115"
       id="text423"
       transform="scale(1.0074987,0.9925571)"><tspan
         sodipodi:role="line"
         x="28.917692"
         y="199.36115"
         id="tspan479"
         style="font-size:14.6667px;stroke-width:0.95965">Mixte (90%)</tspan></text>
    <text
       xml:space="preserve"
       style="font-size:14.6667px;line-height:1.25;font-family:sans-serif;stroke-width:0.95965"
       x="28.917692"
       y="378.47617"
       id="text427"
       transform="scale(1.0074987,0.9925571)"><tspan
         sodipodi:role="line"
         id="tspan425"
         x="28.917692"
         y="378.47617"
         style="font-size:14.6667px;stroke-width:0.95965">Continuous (8%)</tspan></text>
    <text
       xml:space="preserve"
       style="font-size:14.6667px;line-height:1.25;font-family:sans-serif;stroke-width:0.95965"
       x="446.38187"
       y="372.82779"
       id="text485"
       transform="scale(1.0074987,0.99255711)"><tspan
         sodipodi:role="line"
         id="tspan483"
         x="446.38187"
         y="372.82779"
         style="font-size:14.6667px;stroke-width:0.95965">Regression (12%)</tspan></text>
    <text
       xml:space="preserve"
       style="font-size:14.6667px;line-height:1.25;font-family:sans-serif;stroke-width:0.95965"
       x="446.38187"
       y="35.46439"
       id="text489"
       transform="scale(1.0074987,0.99255711)"><tspan
         sodipodi:role="line"
         id="tspan487"
         x="446.38187"
         y="35.46439"
         style="font-size:14.6667px;stroke-width:0.95965">Binary classification (15%)</tspan></text>
    <text
       xml:space="preserve"
       style="font-size:14.6667px;line-height:1.25;font-family:sans-serif;stroke-width:0.95965"
       x="446.38187"
       y="274.30267"
       id="text493"
       transform="scale(1.0074987,0.99255711)"><tspan
         sodipodi:role="line"
         id="tspan491"
         x="446.38187"
         y="274.30267"
         style="font-size:14.6667px;stroke-width:0.95965">Multi-class classification(41%)</tspan></text>
    <text
       xml:space="preserve"
       style="font-size:14.6667px;line-height:1.25;font-family:sans-serif;stroke-width:0.95965"
       x="446.38187"
       y="146.46568"
       id="text497"
       transform="scale(1.0074987,0.99255711)"><tspan
         sodipodi:role="line"
         id="tspan495"
         x="446.38187"
         y="146.46568"
         style="font-size:14.6667px;stroke-width:0.95965">Hybrid(32%)</tspan></text>
    <text
       xml:space="preserve"
       style="font-size:30.7088px;line-height:1.25;font-family:sans-serif;stroke-width:0.95965"
       x="710.16003"
       y="197.29977"
       id="text501"
       transform="scale(1.0074987,0.99255711)"><tspan
         sodipodi:role="line"
         id="tspan499"
         x="710.16003"
         y="197.29977"
         style="stroke-width:0.95965"> <tspan
   style="font-size:14.6667px;stroke-width:0.95965"
   id="tspan503">Text/statistics (31%)</tspan> </tspan></text>
    <text
       xml:space="preserve"
       style="font-size:14.6667px;line-height:1.25;font-family:sans-serif;stroke-width:0.95965"
       x="725.36041"
       y="336.42468"
       id="text509"
       transform="scale(1.0074987,0.99255711)"><tspan
         sodipodi:role="line"
         id="tspan507"
         x="725.36041"
         y="336.42468"
         style="font-size:14.6667px;stroke-width:0.95965">Visual graphs (34%)</tspan></text>
    <text
       xml:space="preserve"
       style="font-size:14.6667px;line-height:1.25;font-family:sans-serif;stroke-width:0.95965"
       x="784.75049"
       y="92.287239"
       id="text513"
       transform="scale(1.0074987,0.99255711)"><tspan
         sodipodi:role="line"
         id="tspan511"
         x="784.75049"
         y="92.287239"
         style="font-size:14.6667px;stroke-width:0.95965">Mixte (35%)</tspan></text>
    <text
       xml:space="preserve"
       style="font-size:21.3333px;line-height:1.25;font-family:sans-serif"
       x="25.697756"
       y="409.22589"
       id="text517"><tspan
         sodipodi:role="line"
         id="tspan515"
         x="25.697756"
         y="409.22589"
         style="font-size:21.3333px">Inputs</tspan></text>
    <text
       xml:space="preserve"
       style="font-size:21.3333px;line-height:1.25;font-family:sans-serif"
       x="424.2868"
       y="409.22589"
       id="text521"><tspan
         sodipodi:role="line"
         id="tspan519"
         x="424.2868"
         y="409.22589"
         style="font-size:21.3333px">Issue</tspan></text>
    <text
       xml:space="preserve"
       style="font-size:21.3333px;line-height:1.25;font-family:sans-serif"
       x="801.17816"
       y="409.5488"
       id="text525"><tspan
         sodipodi:role="line"
         id="tspan523"
         x="801.17816"
         y="409.5488"
         style="font-size:21.3333px">Outputs</tspan></text>
  </g>
</svg>
